<?xml version="1.0" encoding="utf-8"?>
<!-- Generator: Adobe Illustrator 27.0.0, SVG Export Plug-In . SVG Version: 6.00 Build 0)  -->
<svg version="1.1" id="Capa_1" xmlns="http://www.w3.org/2000/svg" xmlns:xlink="http://www.w3.org/1999/xlink" x="0px" y="0px"
	 viewBox="0 0 638 152" style="enable-background:new 0 0 638 152;" xml:space="preserve">
<style type="text/css">
	.st0{fill:#CC6300;}
	.st1{fill:#F84E03;}
	.st2{fill:#1A1A1A;}
	.st3{display:none;}
	.st4{display:inline;}
</style>
<g>
	<g>
		<path class="st0" d="M61,123.5c-0.1,0.3-0.1,0.5-0.2,0.6c-0.2,0.4,0,0.6,0.4,0.7c0.5,0.2,1,0.4,1.5,0.5c0.5,0.2,0.9,0,1.2-0.5
			c0.2-0.6,0.5-1.2,0.7-1.9c4.1-11.4,8.2-22.8,12.4-34.2c0.1-0.2,0.2-0.5,0.3-0.9C66.4,83.8,55.5,80,44.7,76
			c-0.1,0.2-0.2,0.5-0.3,0.6c-4.3,11.9-8.6,23.8-12.9,35.7c-0.1,0.2-0.2,0.5-0.2,0.7c0.1,0.4,0.2,0.9,0.5,1c0.5,0.3,1.2,0.5,1.7,0.6
			c0.2,0,0.5-0.2,0.5-0.4c0.2-0.7,0.7-0.4,1.1-0.2c0.4,0.2,0.8,0.3,0.5,0.9c-0.2,0.7-0.5,1.4-0.8,2.1c-0.2,0.5-0.5,0.6-1,0.5
			c-1.2-0.5-2.5-0.9-3.7-1.4c-1.7-0.6-2.5-2.2-1.9-4c1.2-4.4,2.5-8.9,3.6-13.4c1.9-7.5,3.6-14.9,5.3-22.4c1.8-8,3.3-16.1,4.5-24.2
			c0.4-2.5,0.6-5,1.4-7.4c3.3-10,10.1-16.7,20.3-19.6c8.1-2.3,15.8-1.2,23,3c10.9,6.4,16.3,19,13.8,31.4c-0.9,4.4-2.9,8.3-5.2,12
			C90.2,79.1,85.7,87,81.8,95c-4.3,8.5-8.4,17.1-12.6,25.6c-0.9,1.8-1.6,3.7-2.5,5.4c-0.8,1.7-2.3,2.3-4,1.7
			c-1.2-0.4-2.4-0.9-3.7-1.3c-0.7-0.2-0.8-0.6-0.5-1.2c0.2-0.5,0.5-1.1,0.6-1.7c0.2-0.6,0.5-0.8,1.1-0.5
			C60.5,123.3,60.7,123.4,61,123.5z M79.8,82.2c0.2-0.3,0.3-0.5,0.5-0.8c3.1-5.7,6.1-11.3,9.3-16.9c5.4-9.2,3.3-21.1-5.1-27.7
			C77.1,31,66.9,30.6,59.2,36c-4.9,3.3-7.9,7.8-9,13.7c-1,5.4-2,10.8-3,16.2c-0.2,1.3-0.6,2.6-0.9,4C57.4,74,68.5,78.1,79.8,82.2z"
			/>
		<path class="st0" d="M64.1,130.8c-0.7,0-1.4-0.2-2.1-0.4c-0.7-0.2-1.3-0.5-1.9-0.7c-0.5-0.2-1.1-0.5-1.6-0.6
			c-1.4-0.5-2-1.3-2.3-1.9s-0.5-1.6,0.1-2.9c0.2-0.5,0.4-0.9,0.5-1.3c0.3-1.3,1.2-2,1.7-2.3c0.6-0.3,1.6-0.6,3-0.1l0.3,0.1l0.2,0.2
			c0.1,0,0.1,0,0.2,0.1l0.5,0.2c1.9-5.3,3.8-10.6,5.8-15.9c1.9-5.2,3.7-10.4,5.7-15.6c-4.7-1.7-9.2-3.3-13.8-5
			c-4.7-1.7-9.2-3.3-13.9-5.1c-1.9,5.3-3.8,10.6-5.8,15.9c-1.9,5.2-3.8,10.5-5.7,15.7c0.5,0.1,1,0.2,1.2,0.4
			c0.5,0.2,1.6,0.6,2.2,1.9c0.3,0.8,0.3,1.6,0,2.4c-0.2,0.4-0.2,0.7-0.4,1.1c-0.1,0.3-0.2,0.6-0.3,0.9c-0.3,0.9-0.9,1.6-1.6,2
			c-0.6,0.3-1.6,0.6-2.8,0.2h-0.1l-3.7-1.4c-3-1.1-4.6-4.1-3.6-7.3c1.2-4.3,2.5-8.8,3.5-13.2c1.9-7.5,3.6-15,5.3-22.4
			c1.7-7.5,3.2-15.4,4.5-24c0.1-0.5,0.2-1.1,0.2-1.6c0.3-2,0.6-4.1,1.2-6.2C44.5,32.9,51.9,25.7,63,22.5c8.7-2.5,17.2-1.4,25.2,3.3
			c11.8,6.9,17.9,20.7,15.1,34.3c-1,5.1-3.3,9.4-5.6,13c-4.7,7.6-9.1,15.5-13,23.3c-2.9,5.7-5.7,11.5-8.4,17.1
			c-1.4,2.9-2.8,5.7-4.2,8.5c-0.4,0.9-0.8,1.7-1.2,2.6c-0.4,0.9-0.9,1.9-1.2,2.8C68.2,129.5,66.3,130.8,64.1,130.8z M43,72.6
			l2.6,0.9c5.4,2,11,4,16.4,5.9s10.8,3.9,16.2,5.9l2.9,1L79.7,89c-0.1,0.1-0.1,0.2-0.1,0.2l-0.1,0.2c-1.9,5.1-3.7,10.1-5.4,15.1
			c1.8-3.6,3.6-7.2,5.4-10.8c4-8,8.4-16,13.3-23.8c1.9-3.1,4-6.8,4.8-11.1c2.3-11.3-2.7-22.8-12.5-28.5c-6.6-3.9-13.7-4.8-20.9-2.8
			c-9.3,2.7-15.5,8.5-18.7,18c-0.5,1.6-0.8,3.3-1,5.2c-0.1,0.5-0.2,1.1-0.2,1.6C43,61,41.5,68.9,39.8,76.6c-1,4.4-2,8.9-3.1,13.4
			c1.8-4.8,3.5-9.7,5.3-14.5l0.2-0.3c0.1-0.1,0.1-0.2,0.2-0.3l0.1-0.1L43,72.6z M81.2,85.5l-2.3-0.9C67,80.4,56,76.4,45.4,72.6
			l-2.1-0.8l0.4-2.3c0.2-0.9,0.3-1.6,0.5-2.3c0.2-0.6,0.2-1.2,0.4-1.7c0.5-2.7,1-5.5,1.6-8.2c0.5-2.6,1-5.4,1.5-8
			c1.2-6.5,4.7-11.7,10.2-15.5c8.6-6.1,20.1-5.8,28.5,0.9c9.4,7.3,11.9,20.8,5.8,31.2c-2.3,4-4.5,8-6.7,12c-0.9,1.6-1.7,3.2-2.6,4.8
			l-0.2,0.2c-0.2,0.2-0.2,0.3-0.3,0.5L81.2,85.5z M49.4,68.2c9.3,3.3,19,6.8,29.2,10.6c0.6-1.2,1.2-2.3,1.9-3.5
			c2.2-4,4.4-8.2,6.8-12.1c4.7-8.1,2.8-18.5-4.4-24.2c-6.5-5.1-15.4-5.4-22.1-0.7c-4.4,2.9-7,6.9-7.9,12c-0.5,2.6-1,5.3-1.5,8
			s-1,5.4-1.6,8.2C49.7,67,49.6,67.7,49.4,68.2z"/>
	</g>
	<g>
		<path class="st1" d="M57.2,123.5c-0.1,0.3-0.1,0.5-0.2,0.6c-0.2,0.4,0,0.6,0.4,0.7c0.5,0.2,1,0.4,1.5,0.5c0.5,0.2,0.9,0,1.2-0.5
			c0.2-0.6,0.5-1.2,0.7-1.9c4.1-11.4,8.2-22.8,12.4-34.2c0.1-0.2,0.2-0.5,0.3-0.9C62.6,83.8,51.7,80,40.9,76
			c-0.1,0.2-0.2,0.5-0.3,0.6c-4.3,11.9-8.6,23.8-12.9,35.7c-0.1,0.2-0.2,0.5-0.2,0.7c0.1,0.4,0.2,0.9,0.5,1c0.5,0.3,1.2,0.5,1.7,0.6
			c0.2,0,0.5-0.2,0.5-0.4c0.2-0.7,0.7-0.4,1.1-0.2s0.8,0.3,0.5,0.9c-0.2,0.7-0.5,1.4-0.8,2.1c-0.2,0.5-0.5,0.6-1,0.5
			c-1.2-0.5-2.5-0.9-3.7-1.4c-1.7-0.6-2.5-2.2-1.9-4c1.2-4.4,2.5-8.9,3.6-13.4c1.9-7.5,3.6-14.9,5.3-22.4c1.8-8,3.3-16.1,4.5-24.2
			c0.4-2.5,0.6-5,1.4-7.4c3.3-10,10-16.7,20.3-19.6c8.1-2.3,15.8-1.2,23,3c10.9,6.4,16.3,19,13.8,31.4c-0.9,4.4-2.9,8.3-5.2,12
			C86.4,79.2,82,87.1,78,95.1c-4.3,8.5-8.4,17.1-12.6,25.6c-0.9,1.8-1.6,3.7-2.5,5.4c-0.8,1.7-2.3,2.3-4,1.7
			c-1.2-0.4-2.4-0.9-3.7-1.3c-0.7-0.2-0.8-0.6-0.5-1.2s0.5-1.1,0.6-1.7c0.2-0.6,0.5-0.8,1.1-0.5C56.7,123.3,56.9,123.4,57.2,123.5z
			 M76,82.2c0.2-0.3,0.3-0.5,0.5-0.8c3.1-5.7,6.1-11.3,9.3-16.9c5.4-9.2,3.3-21.1-5.1-27.7C73.3,31,63.1,30.6,55.4,36
			c-4.9,3.3-7.9,7.8-9,13.7c-1,5.4-2,10.8-3,16.2c-0.2,1.3-0.6,2.6-0.9,4C53.6,74,64.7,78.1,76,82.2z"/>
		<path class="st1" d="M60.3,130.8c-0.7,0-1.4-0.2-2.1-0.4c-0.7-0.2-1.3-0.5-1.9-0.7c-0.5-0.2-1.1-0.5-1.6-0.6
			c-1.4-0.5-2-1.3-2.3-1.9s-0.5-1.6,0.1-2.9c0.2-0.5,0.4-0.9,0.5-1.3c0.3-1.3,1.2-2,1.7-2.3c0.6-0.3,1.6-0.6,3-0.1l0.3,0.1l0.2,0.2
			c0.1,0,0.1,0,0.2,0.1l0.5,0.2c1.9-5.3,3.8-10.6,5.8-15.9c1.9-5.2,3.7-10.4,5.7-15.6c-4.7-1.7-9.2-3.3-13.8-5
			c-4.7-1.7-9.2-3.3-13.9-5.1c-1.9,5.3-3.8,10.6-5.8,15.9c-1.9,5.2-3.8,10.5-5.7,15.7c0.5,0.1,1,0.2,1.2,0.4
			c0.5,0.2,1.6,0.6,2.2,1.9c0.3,0.8,0.3,1.6,0,2.4c-0.2,0.4-0.2,0.7-0.4,1.1c-0.1,0.3-0.2,0.6-0.3,0.9c-0.3,0.9-0.9,1.6-1.6,2
			c-0.6,0.3-1.6,0.6-2.8,0.2h-0.1l-3.7-1.4c-3-1.1-4.6-4.1-3.6-7.3c1.2-4.3,2.5-8.8,3.5-13.2c1.9-7.5,3.6-15,5.3-22.4
			c1.7-7.5,3.2-15.4,4.5-24c0.1-0.5,0.2-1.1,0.2-1.6c0.3-2,0.6-4.1,1.2-6.2C40.5,32.7,47.9,25.5,59,22.3c8.7-2.5,17.2-1.4,25.2,3.3
			c11.8,6.9,17.8,20.7,15,34.3c-1,5.1-3.3,9.4-5.6,13c-4.7,7.6-9.1,15.5-13,23.3c-2.9,5.7-5.7,11.5-8.4,17.1
			c-1.4,2.9-2.8,5.7-4.2,8.5c-0.4,0.9-0.8,1.7-1.2,2.6c-0.4,0.9-0.9,1.9-1.2,2.8C64.4,129.5,62.5,130.8,60.3,130.8z M39.1,72.6
			l2.6,0.9c5.4,2,11,4,16.4,5.9s10.8,3.9,16.2,5.9l2.9,1L75.9,89c-0.1,0.1-0.1,0.2-0.1,0.2l-0.1,0.2c-1.9,5.1-3.7,10.1-5.4,15.1
			c1.8-3.6,3.6-7.2,5.4-10.8c4-8,8.4-16,13.3-23.8c1.9-3.1,4-6.8,4.8-11.1c2.3-11.3-2.7-22.8-12.5-28.5c-6.6-3.9-13.7-4.8-20.9-2.8
			c-9.3,2.7-15.5,8.5-18.7,18c-0.5,1.6-0.8,3.3-1,5.2c-0.1,0.5-0.2,1.1-0.2,1.6C39.2,61,37.7,68.9,36,76.6c-1,4.4-2,8.9-3.1,13.4
			c1.8-4.8,3.5-9.7,5.3-14.5l0.2-0.3c0.1-0.1,0.1-0.2,0.2-0.3l0.1-0.1L39.1,72.6z M77.4,85.5l-2.3-0.9c-12-4.3-22.9-8.3-33.6-12.1
			l-2.1-0.8l0.4-2.3c0.2-0.9,0.3-1.6,0.5-2.3c0.2-0.6,0.2-1.2,0.4-1.7c0.5-2.7,1-5.5,1.6-8.2c0.5-2.6,1-5.4,1.5-8
			C45,42.7,48.5,37.5,54,33.7c8.6-6.1,20.1-5.8,28.5,0.9c9.4,7.3,11.9,20.8,5.8,31.2c-2.3,4-4.5,8-6.7,12c-0.9,1.6-1.7,3.2-2.6,4.8
			l-0.2,0.2c-0.2,0.2-0.2,0.3-0.3,0.5L77.4,85.5z M45.6,68.2c9.3,3.3,19,6.8,29.2,10.6c0.6-1.2,1.2-2.3,1.9-3.5
			c2.2-4,4.4-8.2,6.8-12.1c4.7-8.1,2.8-18.5-4.4-24.2c-6.5-5.1-15.4-5.4-22.1-0.7c-4.4,2.9-7,6.9-7.9,12c-0.5,2.6-1,5.3-1.5,8
			s-1,5.4-1.6,8.2C45.9,67,45.7,67.7,45.6,68.2z"/>
	</g>
</g>
<g>
	<path class="st2" d="M143.42,78.09c0-20,11.24-31.43,27.71-31.43s27.71,11.52,27.71,31.43c0,20-11.24,31.9-27.71,31.9
		S143.42,98.09,143.42,78.09z M184.75,78.09c0-12.28-5.24-19.52-13.62-19.52s-13.62,7.24-13.62,19.52s5.24,20,13.62,20
		C179.51,98.18,184.75,90.38,184.75,78.09z"/>
	<path class="st2" d="M209.32,62.47h11.24l0.95,8.09h0.38c3.43-6.19,8.48-9.24,13.24-9.24c2.67,0,4.19,0.38,5.52,0.95l-2.29,11.9
		c-1.62-0.38-3.05-0.76-5.05-0.76c-3.52,0-7.81,2.29-10.28,8.57v26.95h-13.81V62.47H209.32z"/>
	<path class="st2" d="M241.89,96.09c0-9.81,7.81-15.14,26.19-17.05c-0.29-4.09-2.29-6.76-7.33-6.76c-3.9,0-7.81,1.62-12.28,4.19
		l-4.86-9.05c5.9-3.62,12.57-6.09,19.9-6.09c11.9,0,18.47,6.76,18.47,21.05v26.57h-11.24l-0.95-4.76h-0.38
		c-3.9,3.43-8.28,5.9-13.52,5.9C247.22,110.09,241.89,103.9,241.89,96.09z M268.07,95.42v-8.09c-9.81,1.33-13.05,4.09-13.05,7.62
		c0,2.95,2.1,4.48,5.33,4.48C263.5,99.42,265.6,97.9,268.07,95.42z"/>
	<path class="st2" d="M293.4,62.47h11.24l0.95,5.9h0.38c3.9-3.71,8.57-7.05,14.95-7.05c10.09,0,14.47,7.14,14.47,18.76v28.85h-13.81
		V81.81c0-6.67-1.81-8.76-5.81-8.76c-3.43,0-5.62,1.62-8.57,4.48v31.43H293.4V62.47z"/>
	<path class="st2" d="M344.16,116.94c0-3.9,2.29-6.95,6.57-9.33v-0.38c-2.38-1.62-4.29-4.09-4.29-7.9c0-3.33,2.19-6.67,5.14-8.76
		v-0.38c-3.24-2.29-6.29-6.67-6.29-12.09c0-11.14,9.24-16.86,19.24-16.86c2.57,0,5.14,0.38,7.24,1.14h17.05v10h-7.33
		c0.86,1.43,1.62,3.71,1.62,6.09c0,10.67-8.09,15.62-18.28,15.62c-1.71,0-3.62-0.29-5.71-0.86c-1.14,0.95-1.62,1.81-1.62,3.43
		c0,2.29,1.9,3.43,6.95,3.43h7.52c11.43,0,17.81,3.52,17.81,11.81c0,9.62-10.09,16.66-26,16.66
		C352.83,128.75,344.16,125.23,344.16,116.94z M376.44,114.37c0-2.95-2.48-3.62-7.05-3.62h-4.86c-3.14,0-5.05-0.19-6.48-0.57
		c-1.71,1.43-2.48,2.86-2.48,4.57c0,3.52,4.09,5.33,10.28,5.33C372.06,120.09,376.44,117.61,376.44,114.37z M371.11,78.19
		c0-4.95-2.67-7.52-6.38-7.52c-3.62,0-6.38,2.57-6.38,7.52c0,5.14,2.76,7.71,6.38,7.71S371.11,83.23,371.11,78.19z"/>
	<path class="st2" d="M392.73,85.71c0-15.05,10.76-24.38,21.9-24.38c13.24,0,19.81,9.62,19.81,22.28c0,2.48-0.29,4.95-0.57,6.09
		h-27.81c1.24,6.76,5.9,9.81,12.09,9.81c3.52,0,6.67-1.05,10.09-3.05l4.57,8.28c-4.76,3.33-10.95,5.24-16.47,5.24
		C403.01,110.09,392.73,101.14,392.73,85.71z M422.72,80.57c0-5.14-2.19-8.76-7.71-8.76c-4.38,0-8.09,2.95-9.05,8.76H422.72z"/>
	<path class="st2" d="M475.86,59.43H459V47.81h47.42v11.62h-16.86v49.52h-13.81V59.43H475.86z"/>
	<path class="st2" d="M505.09,85.71c0-15.43,10.86-24.38,22.66-24.38s22.66,8.95,22.66,24.38s-10.86,24.38-22.66,24.38
		C515.95,110.09,505.09,101.14,505.09,85.71z M536.23,85.71c0-8.09-2.86-13.24-8.57-13.24s-8.57,5.24-8.57,13.24
		s2.86,13.24,8.57,13.24S536.23,93.8,536.23,85.71z"/>
	<path class="st2" d="M557.09,85.71c0-15.43,10.86-24.38,22.66-24.38c11.81,0,22.66,8.95,22.66,24.38s-10.86,24.38-22.66,24.38
		C567.95,110.09,557.09,101.14,557.09,85.71z M588.32,85.71c0-8.09-2.86-13.24-8.57-13.24c-5.71,0-8.57,5.24-8.57,13.24
		s2.86,13.24,8.57,13.24C585.47,98.95,588.32,93.8,588.32,85.71z"/>
	<path class="st2" d="M611.08,94.47V43.24h13.81v51.8c0,2.95,1.33,3.9,2.48,3.9c0.57,0,0.86,0,1.71-0.19l1.62,10.19
		c-1.52,0.67-3.81,1.14-6.95,1.14C614.32,110.09,611.08,103.9,611.08,94.47z"/>
</g>
<g id="Capa_2_00000151540604907221920120000009131820710782688421_" class="st3">
	<g class="st4">
		<g>
			<path d="M172.4,71.3c0-12,6.8-18.9,16.7-18.9s16.7,6.9,16.7,18.9s-6.8,19.2-16.7,19.2S172.4,83.3,172.4,71.3z M197.3,71.3
				c0-7.4-3.2-11.7-8.2-11.7s-8.2,4.4-8.2,11.7c0,7.4,3.2,12,8.2,12S197.3,78.6,197.3,71.3z"/>
			<path d="M212,61.8h6.8l0.6,4.9h0.2c2-3.7,5.1-5.6,8-5.6c1.6,0,2.5,0.2,3.3,0.6l-1.4,7.2c-1-0.2-1.8-0.5-3-0.5
				c-2.1,0-4.7,1.4-6.2,5.2v16.2H212V61.8z"/>
			<path d="M233.2,82.1c0-5.9,4.7-9.1,15.8-10.3c-0.2-2.4-1.4-4-4.4-4c-2.3,0-4.7,1-7.4,2.5l-2.9-5.4c3.6-2.2,7.6-3.7,12-3.7
				c7.2,0,11.1,4.1,11.1,12.7v16h-6.8L250,87h-0.2c-2.4,2.1-5,3.5-8.1,3.5C236.4,90.5,233.2,86.8,233.2,82.1z M249,81.7v-4.9
				c-5.9,0.8-7.8,2.5-7.8,4.6c0,1.8,1.2,2.7,3.2,2.7C246.2,84.1,247.5,83.1,249,81.7z"/>
			<path d="M264.2,61.8h6.8l0.6,3.5h0.2c2.4-2.3,5.2-4.2,9-4.2c6.1,0,8.7,4.3,8.7,11.3v17.4h-8.3V73.5c0-4-1.1-5.3-3.5-5.3
				c-2.1,0-3.4,1-5.2,2.7v18.9h-8.3L264.2,61.8L264.2,61.8z"/>
			<path d="M294.8,94.6c0-2.3,1.4-4.2,4-5.6v-0.2c-1.4-1-2.6-2.4-2.6-4.8c0-2,1.3-4,3.1-5.2v-0.2c-2-1.4-3.8-4-3.8-7.3
				c0-6.7,5.5-10.1,11.6-10.1c1.6,0,3.1,0.2,4.3,0.7h10.2v6h-4.5c0.5,0.8,0.9,2.2,0.9,3.7c0,6.4-4.9,9.4-11,9.4
				c-1,0-2.2-0.2-3.4-0.5c-0.7,0.6-1,1.1-1,2.1c0,1.4,1.1,2.1,4.2,2.1h4.5c6.9,0,10.7,2.1,10.7,7.1c0,5.8-6.1,10.1-15.7,10.1
				C300,101.7,294.8,99.6,294.8,94.6z M314.2,93.1c0-1.8-1.5-2.2-4.3-2.2H307c-1.9,0-3-0.1-3.9-0.4c-1,0.9-1.5,1.7-1.5,2.7
				c0,2.1,2.5,3.2,6.2,3.2C311.5,96.5,314.2,95,314.2,93.1z M311,71.3c0-3-1.6-4.6-3.8-4.6s-3.8,1.6-3.8,4.6c0,3.1,1.6,4.7,3.8,4.7
				C309.3,75.9,311,74.3,311,71.3z"/>
			<path d="M325,75.8c0-9.1,6.5-14.7,13.2-14.7c8,0,11.9,5.8,11.9,13.4c0,1.5-0.2,3-0.3,3.7H333c0.7,4.1,3.5,5.9,7.3,5.9
				c2.1,0,4-0.6,6.1-1.8l2.7,5c-2.9,2-6.6,3.2-9.9,3.2C331.2,90.5,325,85.1,325,75.8z M343,72.8c0-3.1-1.3-5.3-4.7-5.3
				c-2.6,0-4.9,1.8-5.4,5.3H343z"/>
			<path d="M375,60h-10.1v-7h28.6v7h-10.1v29.8H375V60z"/>
			<path d="M396.9,75.8c0-9.3,6.6-14.7,13.6-14.7c7.1,0,13.6,5.4,13.6,14.7s-6.6,14.7-13.6,14.7C403.4,90.5,396.9,85.1,396.9,75.8z
				 M415.7,75.8c0-4.8-1.7-8-5.1-8s-5.1,3.1-5.1,8c0,4.8,1.7,8,5.1,8S415.7,80.7,415.7,75.8z"/>
			<path d="M428.2,75.8c0-9.3,6.6-14.7,13.6-14.7c7.1,0,13.6,5.4,13.6,14.7s-6.6,14.7-13.6,14.7C434.8,90.5,428.2,85.1,428.2,75.8z
				 M447,75.8c0-4.8-1.7-8-5.1-8s-5.1,3.1-5.1,8c0,4.8,1.7,8,5.1,8S447,80.7,447,75.8z"/>
			<path d="M461.2,81.1V50.3h8.3v31.2c0,1.8,0.8,2.3,1.5,2.3c0.3,0,0.5,0,1-0.1l1,6.1c-0.9,0.4-2.3,0.7-4.2,0.7
				C463.1,90.5,461.2,86.8,461.2,81.1z"/>
		</g>
	</g>
</g>
</svg>
