<svg width="638" height="152" viewBox="0 0 638 152" fill="none" xmlns="http://www.w3.org/2000/svg">
<circle cx="65.2213" cy="48.141" r="30.5" transform="rotate(-165 65.2213 48.141)" stroke="#CC6300" stroke-width="15"/>
<mask id="path-2-inside-1_1203_56" fill="white">
<path d="M5.45067 129.728C5.39805 123.717 6.77232 117.779 9.46056 112.402C12.1488 107.025 16.0743 102.363 20.9147 98.798C25.755 95.2332 31.372 92.8675 37.3043 91.8954C43.2366 90.9233 49.3149 91.3725 55.0398 93.2061C60.7648 95.0397 65.973 98.2053 70.2367 102.443C74.5005 106.681 77.698 111.869 79.5666 117.583C81.4353 123.297 81.9218 129.372 80.9861 135.31C80.0504 141.248 77.7192 146.88 74.1842 151.742L61.8902 142.803C64.0112 139.886 65.4099 136.507 65.9713 132.944C66.5327 129.381 66.2409 125.736 65.1197 122.308C63.9985 118.88 62.08 115.766 59.5217 113.224C56.9635 110.681 53.8386 108.782 50.4036 107.682C46.9686 106.582 43.3217 106.312 39.7623 106.895C36.2029 107.479 32.8327 108.898 29.9285 111.037C27.0243 113.176 24.669 115.973 23.056 119.199C21.4431 122.425 20.6185 125.988 20.6501 129.595L5.45067 129.728Z"/>
</mask>
<path d="M5.45067 129.728L-14.2037 129.9L-14.0317 149.554L5.62272 149.382L5.45067 129.728ZM74.1842 151.742L62.6256 167.639L78.523 179.198L90.0815 163.3L74.1842 151.742ZM61.8902 142.803L45.9928 131.245L34.4343 147.142L50.3317 158.701L61.8902 142.803ZM20.6501 129.595L20.8221 149.249L40.4766 149.077L40.3045 129.423L20.6501 129.595ZM5.45067 129.728L25.1051 129.556C25.0797 126.654 25.7431 123.787 27.0409 121.192L9.46056 112.402L-8.11977 103.612C-12.1985 111.77 -14.2836 120.78 -14.2037 129.9L5.45067 129.728ZM9.46056 112.402L27.0409 121.192C28.3387 118.596 30.2338 116.345 32.5705 114.624L20.9147 98.798L9.25887 82.9718C1.91492 88.3806 -4.04106 95.4545 -8.11977 103.612L9.46056 112.402ZM20.9147 98.798L32.5705 114.624C34.9072 112.903 37.6189 111.761 40.4827 111.292L37.3043 91.8954L34.1259 72.4989C25.1252 73.9738 16.6028 77.5631 9.25887 82.9718L20.9147 98.798ZM37.3043 91.8954L40.4827 111.292C43.3466 110.823 46.2809 111.039 49.0447 111.925L55.0398 93.2061L61.035 74.4876C52.3488 71.7056 43.1266 71.024 34.1259 72.4989L37.3043 91.8954ZM55.0398 93.2061L49.0447 111.925C51.8085 112.81 54.3228 114.338 56.3811 116.384L70.2367 102.443L84.0924 88.5021C77.6233 82.0726 69.7211 77.2695 61.035 74.4876L55.0398 93.2061ZM70.2367 102.443L56.3811 116.384C58.4395 118.43 59.9831 120.934 60.8852 123.693L79.5666 117.583L98.2481 111.473C95.4129 102.804 90.5615 94.9316 84.0924 88.5021L70.2367 102.443ZM79.5666 117.583L60.8852 123.693C61.7873 126.451 62.0222 129.384 61.5705 132.251L80.9861 135.31L100.402 138.369C101.821 129.36 101.083 120.142 98.2481 111.473L79.5666 117.583ZM80.9861 135.31L61.5705 132.251C61.1188 135.117 59.9934 137.836 58.2868 140.183L74.1842 151.742L90.0815 163.3C95.4451 155.923 98.982 147.379 100.402 138.369L80.9861 135.31ZM74.1842 151.742L85.7427 135.844L73.4487 126.906L61.8902 142.803L50.3317 158.701L62.6256 167.639L74.1842 151.742ZM61.8902 142.803L77.7876 154.362C81.7371 148.93 84.3416 142.638 85.3869 136.004L65.9713 132.944L46.5557 129.885C46.4783 130.376 46.2854 130.842 45.9928 131.245L61.8902 142.803ZM65.9713 132.944L85.3869 136.004C86.4323 129.369 85.8888 122.582 83.8011 116.198L65.1197 122.308L46.4382 128.418C46.5929 128.891 46.6332 129.393 46.5557 129.885L65.9713 132.944ZM65.1197 122.308L83.8011 116.198C81.7134 109.815 78.141 104.018 73.3773 99.283L59.5217 113.224L45.6661 127.165C46.019 127.515 46.2836 127.945 46.4382 128.418L65.1197 122.308ZM59.5217 113.224L73.3773 99.283C68.6138 94.5486 62.7949 91.0118 56.3987 88.9632L50.4036 107.682L44.4084 126.4C44.8822 126.552 45.3133 126.814 45.6661 127.165L59.5217 113.224ZM50.4036 107.682L56.3987 88.9632C50.0026 86.9147 43.2117 86.4128 36.5839 87.4989L39.7623 106.895L42.9407 126.292C43.4316 126.211 43.9347 126.249 44.4084 126.4L50.4036 107.682ZM39.7623 106.895L36.5839 87.4989C29.9561 88.585 23.6805 91.2279 18.2727 95.2107L29.9285 111.037L41.5843 126.863C41.9849 126.568 42.4497 126.372 42.9407 126.292L39.7623 106.895ZM29.9285 111.037L18.2727 95.2107C12.8649 99.1935 8.47911 104.402 5.47569 110.41L23.056 119.199L40.6364 127.989C40.8588 127.544 41.1837 127.158 41.5843 126.863L29.9285 111.037ZM23.056 119.199L5.47569 110.41C2.47226 116.417 0.936882 123.051 0.995672 129.767L20.6501 129.595L40.3045 129.423C40.3002 128.925 40.4139 128.434 40.6364 127.989L23.056 119.199ZM20.6501 129.595L20.478 109.94L5.27863 110.074L5.45067 129.728L5.62272 149.382L20.8221 149.249L20.6501 129.595Z" fill="#CC6300" mask="url(#path-2-inside-1_1203_56)"/>
<circle cx="60.3568" cy="46.8539" r="30.7561" transform="rotate(-165 60.3568 46.8539)" stroke="#FF7A00" stroke-width="15"/>
<mask id="path-5-inside-2_1203_56" fill="white">
<path d="M0.0587041 130.368C-0.27667 124.34 0.82846 118.319 3.28374 112.796C5.73902 107.274 9.47473 102.408 14.1854 98.5948C18.8962 94.782 24.4481 92.1311 30.3874 90.859C36.3267 89.5868 42.4846 89.7295 48.3578 91.2753C54.231 92.8211 59.6526 95.7262 64.1793 99.753C68.7061 103.78 72.2095 108.814 74.4031 114.444C76.5967 120.074 77.4182 126.14 76.8005 132.146C76.1827 138.152 74.1433 143.927 70.8489 149L57.9093 140.703C59.886 137.659 61.1096 134.194 61.4803 130.59C61.8509 126.987 61.358 123.347 60.0419 119.969C58.7257 116.591 56.6237 113.57 53.9076 111.154C51.1915 108.738 47.9386 106.995 44.4147 106.068C40.8908 105.14 37.196 105.055 33.6324 105.818C30.0689 106.581 26.7377 108.172 23.9113 110.459C21.0848 112.747 18.8434 115.667 17.3702 118.98C15.8971 122.294 15.234 125.907 15.4352 129.523L0.0587041 130.368Z"/>
</mask>
<path d="M0.0587041 130.368L-19.5661 131.46L-18.475 151.071L1.13681 149.994L0.0587041 130.368ZM70.8489 149L60.239 165.546L76.6891 176.094L87.3328 159.705L70.8489 149ZM57.9093 140.703L41.4254 129.997L30.6579 146.577L47.2995 157.248L57.9093 140.703ZM15.4352 129.523L16.5133 149.149L36.1527 148.07L35.06 128.432L15.4352 129.523ZM0.0587041 130.368L19.6835 129.276C19.5216 126.366 20.0546 123.456 21.2438 120.782L3.28374 112.796L-14.6763 104.811C-18.3976 113.181 -20.075 122.314 -19.5661 131.46L0.0587041 130.368ZM3.28374 112.796L21.2438 120.782C22.4332 118.106 24.2484 115.737 26.5512 113.873L14.1854 98.5948L1.8197 83.3169C-5.29891 89.0786 -10.9551 96.4418 -14.6763 104.811L3.28374 112.796ZM14.1854 98.5948L26.5512 113.873C28.8546 112.008 31.579 110.705 34.504 110.078L30.3874 90.859L26.2708 71.6397C17.3173 73.5575 8.93773 77.5556 1.8197 83.3169L14.1854 98.5948ZM30.3874 90.859L34.504 110.078C37.4294 109.452 40.4634 109.522 43.3549 110.283L48.3578 91.2753L53.3607 72.2675C44.5059 69.9369 35.224 69.722 26.2708 71.6397L30.3874 90.859ZM48.3578 91.2753L43.3549 110.283C46.2462 111.044 48.9043 112.472 51.1157 114.439L64.1793 99.753L77.243 85.0674C70.4008 78.9809 62.2158 74.5982 53.3607 72.2675L48.3578 91.2753ZM64.1793 99.753L51.1157 114.439C53.3264 116.405 55.0271 118.854 56.089 121.58L74.4031 114.444L92.7172 107.308C89.3919 98.7738 84.0858 91.1545 77.243 85.0674L64.1793 99.753ZM74.4031 114.444L56.089 121.58C57.1507 124.305 57.5467 127.235 57.2485 130.135L76.8005 132.146L96.3525 134.157C97.2898 125.045 96.0427 115.843 92.7172 107.308L74.4031 114.444ZM76.8005 132.146L57.2485 130.135C56.9502 133.035 55.965 135.831 54.3649 138.295L70.8489 149L87.3328 159.705C92.3216 152.024 95.4153 143.269 96.3525 134.157L76.8005 132.146ZM70.8489 149L81.4587 132.454L68.5192 124.157L57.9093 140.703L47.2995 157.248L60.239 165.546L70.8489 149ZM57.9093 140.703L74.3932 151.408C78.0643 145.755 80.3422 139.311 81.0323 132.601L61.4803 130.59L41.9283 128.579C41.8771 129.076 41.7077 129.562 41.4254 129.997L57.9093 140.703ZM61.4803 130.59L81.0323 132.601C81.7225 125.891 80.8041 119.116 78.356 112.833L60.0419 119.969L41.7277 127.105C41.912 127.578 41.9794 128.082 41.9283 128.579L61.4803 130.59ZM60.0419 119.969L78.356 112.833C75.9081 106.551 72.0033 100.945 66.9712 96.4688L53.9076 111.154L40.8439 125.84C41.244 126.196 41.5433 126.631 41.7277 127.105L60.0419 119.969ZM53.9076 111.154L66.9712 96.4688C61.9397 91.993 55.9234 88.7722 49.4175 87.0599L44.4147 106.068L39.4118 125.076C39.9538 125.218 40.4433 125.484 40.8439 125.84L53.9076 111.154ZM44.4147 106.068L49.4175 87.0599C42.912 85.3477 36.0933 85.1898 29.5158 86.5987L33.6324 105.818L37.7491 125.037C38.2987 124.919 38.8695 124.933 39.4118 125.076L44.4147 106.068ZM33.6324 105.818L29.5158 86.5987C22.9381 88.0076 16.7793 90.9454 11.5455 95.1815L23.9113 110.459L36.277 125.737C36.6961 125.398 37.1997 125.155 37.7491 125.037L33.6324 105.818ZM23.9113 110.459L11.5455 95.1815C6.3112 99.4181 2.14925 104.835 -0.589772 110.995L17.3702 118.98L35.3303 126.966C35.5376 126.499 35.8585 126.076 36.277 125.737L23.9113 110.459ZM17.3702 118.98L-0.589772 110.995C-3.32903 117.156 -4.56431 123.88 -4.1896 130.615L15.4352 129.523L35.06 128.432C35.0323 127.933 35.1232 127.431 35.3303 126.966L17.3702 118.98ZM15.4352 129.523L14.3571 109.898L-1.0194 110.742L0.0587041 130.368L1.13681 149.994L16.5133 149.149L15.4352 129.523Z" fill="#FF7A00" mask="url(#path-5-inside-2_1203_56)"/>
<path d="M189.489 109.523C182.897 109.523 177.105 108.051 172.113 105.107C167.121 102.163 163.185 98.0989 160.305 92.9149C157.489 87.6669 156.081 81.6189 156.081 74.7709C156.081 67.9229 157.489 61.9069 160.305 56.7229C163.185 51.4749 167.121 47.3789 172.113 44.4349C177.105 41.4909 182.897 40.0189 189.489 40.0189C196.081 40.0189 201.905 41.4909 206.961 44.4349C212.017 47.3789 215.921 51.4749 218.673 56.7229C221.489 61.9069 222.897 67.9229 222.897 74.7709C222.897 81.6189 221.489 87.6669 218.673 92.9149C215.921 98.0989 212.017 102.163 206.961 105.107C201.905 108.051 196.081 109.523 189.489 109.523ZM189.489 96.5629C193.393 96.5629 196.721 95.6669 199.473 93.8749C202.289 92.0829 204.465 89.5869 206.001 86.3869C207.537 83.1229 208.305 79.2509 208.305 74.7709C208.305 70.2909 207.537 66.4509 206.001 63.2509C204.465 59.9869 202.289 57.4909 199.473 55.7629C196.721 53.9709 193.393 53.0749 189.489 53.0749C185.713 53.0749 182.417 53.9709 179.601 55.7629C176.785 57.4909 174.609 59.9869 173.073 63.2509C171.537 66.4509 170.769 70.2909 170.769 74.7709C170.769 79.2509 171.537 83.1229 173.073 86.3869C174.609 89.5869 176.785 92.0829 179.601 93.8749C182.417 95.6669 185.713 96.5629 189.489 96.5629ZM226.75 108.371V59.9869H239.518L240.862 68.8189C242.142 66.7709 243.646 65.0109 245.374 63.5389C247.102 62.0669 249.086 60.9149 251.326 60.0829C253.63 59.2509 256.094 58.8349 258.718 58.8349V74.0989H253.918C251.998 74.0989 250.238 74.3229 248.638 74.7709C247.102 75.1549 245.758 75.8269 244.606 76.7869C243.518 77.7469 242.654 79.0589 242.014 80.7229C241.438 82.3229 241.15 84.3389 241.15 86.7709V108.371H226.75ZM276.855 109.523C272.823 109.523 269.463 108.883 266.775 107.603C264.151 106.323 262.199 104.595 260.919 102.419C259.703 100.179 259.095 97.7149 259.095 95.0269C259.095 92.1469 259.799 89.6189 261.207 87.4429C262.679 85.2029 264.951 83.4429 268.023 82.1629C271.095 80.8189 274.967 80.1469 279.639 80.1469H291.351C291.351 77.9709 291.063 76.1789 290.487 74.7709C289.975 73.3629 289.111 72.3069 287.895 71.6029C286.679 70.8989 285.015 70.5469 282.903 70.5469C280.663 70.5469 278.775 70.9949 277.239 71.8909C275.703 72.7869 274.743 74.1949 274.359 76.1149H260.535C260.855 72.6589 261.975 69.6509 263.895 67.0909C265.879 64.5309 268.503 62.5149 271.767 61.0429C275.031 59.5709 278.775 58.8349 282.999 58.8349C287.607 58.8349 291.607 59.6029 294.999 61.1389C298.391 62.6109 301.015 64.7869 302.871 67.6669C304.791 70.5469 305.751 74.1309 305.751 78.4189V108.371H293.751L292.023 101.363C291.319 102.579 290.487 103.699 289.527 104.723C288.567 105.683 287.447 106.547 286.167 107.315C284.887 108.019 283.479 108.563 281.943 108.947C280.407 109.331 278.711 109.523 276.855 109.523ZM280.407 98.5789C281.943 98.5789 283.287 98.3229 284.439 97.8109C285.591 97.2989 286.583 96.5949 287.415 95.6989C288.247 94.8029 288.919 93.7789 289.431 92.6269C290.007 91.4109 290.423 90.0989 290.679 88.6909V88.5949H281.367C279.767 88.5949 278.423 88.8189 277.335 89.2669C276.311 89.6509 275.543 90.2269 275.031 90.9949C274.519 91.7629 274.263 92.6589 274.263 93.6829C274.263 94.7709 274.519 95.6989 275.031 96.4669C275.607 97.1709 276.343 97.7149 277.239 98.0989C278.199 98.4189 279.255 98.5789 280.407 98.5789ZM310.998 108.371V59.9869H323.574L324.726 67.7629C326.198 65.0749 328.278 62.9309 330.966 61.3309C333.654 59.6669 336.918 58.8349 340.758 58.8349C344.79 58.8349 348.182 59.6989 350.934 61.4269C353.686 63.1549 355.766 65.6509 357.174 68.9149C358.646 72.1149 359.382 76.0509 359.382 80.7229V108.371H345.078V82.0669C345.078 78.5469 344.31 75.8269 342.774 73.9069C341.302 71.9229 338.934 70.9309 335.67 70.9309C333.75 70.9309 331.99 71.4109 330.39 72.3709C328.854 73.2669 327.638 74.5789 326.742 76.3069C325.846 78.0349 325.398 80.1149 325.398 82.5469V108.371H310.998ZM385.965 130.643C381.229 130.643 377.133 130.067 373.677 128.915C370.221 127.827 367.533 126.163 365.613 123.923C363.757 121.683 362.829 118.867 362.829 115.475C362.829 113.043 363.469 110.771 364.749 108.659C366.093 106.547 367.981 104.691 370.413 103.091C372.845 101.427 375.757 100.051 379.149 98.9629L383.949 106.259C381.133 107.091 379.021 108.179 377.613 109.523C376.269 110.867 375.597 112.371 375.597 114.035C375.597 115.315 376.045 116.403 376.941 117.299C377.837 118.195 379.053 118.867 380.589 119.315C382.189 119.763 383.949 119.987 385.869 119.987C387.725 119.987 389.325 119.763 390.669 119.315C392.077 118.867 393.165 118.195 393.933 117.299C394.765 116.467 395.181 115.443 395.181 114.227C395.181 112.627 394.637 111.347 393.549 110.387C392.461 109.427 390.221 108.819 386.829 108.563C383.693 108.307 380.845 107.955 378.285 107.507C375.789 106.995 373.549 106.387 371.565 105.683C369.645 104.979 367.981 104.211 366.573 103.379C365.165 102.547 364.077 101.715 363.309 100.883V98.6749L373.869 87.0589L383.757 90.1309L370.989 103.091L375.405 95.7949C376.045 96.1789 376.717 96.5629 377.421 96.9469C378.125 97.2669 378.989 97.5549 380.013 97.8109C381.037 98.0669 382.317 98.3229 383.853 98.5789C385.389 98.7709 387.373 98.9949 389.805 99.2509C393.965 99.6349 397.389 100.435 400.077 101.651C402.829 102.803 404.845 104.403 406.125 106.451C407.469 108.499 408.141 110.995 408.141 113.939C408.141 116.819 407.341 119.539 405.741 122.099C404.141 124.659 401.709 126.707 398.445 128.243C395.181 129.843 391.021 130.643 385.965 130.643ZM386.061 94.3549C382.029 94.3549 378.541 93.5549 375.597 91.9549C372.653 90.3549 370.381 88.2429 368.781 85.6189C367.181 82.9309 366.381 79.9229 366.381 76.5949C366.381 73.3309 367.181 70.3869 368.781 67.7629C370.381 65.0749 372.653 62.9309 375.597 61.3309C378.541 59.6669 382.029 58.8349 386.061 58.8349C390.157 58.8349 393.677 59.6669 396.621 61.3309C399.565 62.9309 401.805 65.0749 403.341 67.7629C404.877 70.3869 405.645 73.3309 405.645 76.5949C405.645 79.9229 404.877 82.9309 403.341 85.6189C401.805 88.2429 399.565 90.3549 396.621 91.9549C393.677 93.5549 390.157 94.3549 386.061 94.3549ZM386.061 83.5069C388.237 83.5069 390.029 82.9309 391.437 81.7789C392.845 80.6269 393.549 78.9309 393.549 76.6909C393.549 74.4509 392.845 72.7549 391.437 71.6029C390.029 70.4509 388.237 69.8749 386.061 69.8749C383.885 69.8749 382.061 70.4509 380.589 71.6029C379.181 72.7549 378.477 74.4509 378.477 76.6909C378.477 78.9309 379.181 80.6269 380.589 81.7789C382.061 82.9309 383.885 83.5069 386.061 83.5069ZM394.125 69.8749L392.013 59.9869H412.077V68.1469L394.125 69.8749ZM438.178 109.523C433.186 109.523 428.802 108.499 425.026 106.451C421.25 104.339 418.274 101.427 416.098 97.7149C413.986 93.9389 412.93 89.6189 412.93 84.7549C412.93 79.7629 413.986 75.3149 416.098 71.4109C418.21 67.5069 421.154 64.4349 424.93 62.1949C428.706 59.9549 433.09 58.8349 438.082 58.8349C442.946 58.8349 447.202 59.8909 450.85 62.0029C454.498 64.1149 457.346 66.9949 459.394 70.6429C461.506 74.2269 462.562 78.3869 462.562 83.1229C462.562 83.7629 462.53 84.4989 462.466 85.3309C462.466 86.0989 462.402 86.8989 462.274 87.7309H423.202V79.3789H447.874C447.746 76.6909 446.754 74.5469 444.898 72.9469C443.106 71.2829 440.866 70.4509 438.178 70.4509C436.13 70.4509 434.274 70.9309 432.61 71.8909C430.946 72.8509 429.602 74.2909 428.578 76.2109C427.618 78.1309 427.138 80.5629 427.138 83.5069V86.3869C427.138 88.6269 427.554 90.6109 428.386 92.3389C429.282 94.0669 430.53 95.4109 432.13 96.3709C433.794 97.3309 435.746 97.8109 437.986 97.8109C440.098 97.8109 441.826 97.3949 443.17 96.5629C444.578 95.6669 445.666 94.5469 446.434 93.2029H461.122C460.226 96.2749 458.69 99.0589 456.514 101.555C454.338 103.987 451.682 105.939 448.546 107.411C445.41 108.819 441.954 109.523 438.178 109.523ZM481.56 108.371V41.1709H495.96V66.6109L519.192 41.1709H536.856L512.184 67.7629L537.72 108.371H520.056L501.912 78.8989L495.96 85.3309V108.371H481.56ZM558.737 109.523C553.745 109.523 549.361 108.499 545.585 106.451C541.809 104.339 538.833 101.427 536.657 97.7149C534.545 93.9389 533.489 89.6189 533.489 84.7549C533.489 79.7629 534.545 75.3149 536.657 71.4109C538.769 67.5069 541.713 64.4349 545.489 62.1949C549.265 59.9549 553.649 58.8349 558.641 58.8349C563.505 58.8349 567.761 59.8909 571.409 62.0029C575.057 64.1149 577.905 66.9949 579.953 70.6429C582.065 74.2269 583.121 78.3869 583.121 83.1229C583.121 83.7629 583.089 84.4989 583.025 85.3309C583.025 86.0989 582.961 86.8989 582.833 87.7309H543.761V79.3789H568.433C568.305 76.6909 567.313 74.5469 565.457 72.9469C563.665 71.2829 561.425 70.4509 558.737 70.4509C556.689 70.4509 554.833 70.9309 553.169 71.8909C551.505 72.8509 550.161 74.2909 549.137 76.2109C548.177 78.1309 547.697 80.5629 547.697 83.5069V86.3869C547.697 88.6269 548.113 90.6109 548.945 92.3389C549.841 94.0669 551.089 95.4109 552.689 96.3709C554.353 97.3309 556.305 97.8109 558.545 97.8109C560.657 97.8109 562.385 97.3949 563.729 96.5629C565.137 95.6669 566.225 94.5469 566.993 93.2029H581.681C580.785 96.2749 579.249 99.0589 577.073 101.555C574.897 103.987 572.241 105.939 569.105 107.411C565.969 108.819 562.513 109.523 558.737 109.523ZM590.985 129.491L602.601 102.995H599.721L580.233 59.9869H595.881L609.225 89.4589L620.361 59.9869H635.817L606.249 129.491H590.985Z" fill="#FF7A00"/>
</svg>
