<?xml version="1.0" encoding="utf-8"?>
<!-- Generator: Adobe Illustrator 27.0.0, SVG Export Plug-In . SVG Version: 6.00 Build 0)  -->
<svg version="1.1" id="Capa_1" xmlns="http://www.w3.org/2000/svg" xmlns:xlink="http://www.w3.org/1999/xlink" x="0px" y="0px"
	 viewBox="0 0 638 152" style="enable-background:new 0 0 638 152;" xml:space="preserve">
<style type="text/css">
	.st0{fill:none;stroke:#CC6300;stroke-width:15;}
	.st1{fill:#FFFFFF;filter:url(#Adobe_OpacityMaskFilter);}
	.st2{mask:url(#path-2-inside-1_1203_56_00000158743419481100751270000013681531346404386710_);fill:#CC6300;}
	.st3{fill:none;stroke:#F84E03;stroke-width:15;}
	.st4{fill:#FFFFFF;filter:url(#Adobe_OpacityMaskFilter_00000056405852607532423520000016755540787221244331_);}
	.st5{mask:url(#path-5-inside-2_1203_56_00000056425848261204559490000015045249353778434980_);fill:#F84E03;}
	.st6{fill:#F84E03;}
</style>
<circle class="st0" cx="65.2" cy="48.1" r="30.5"/>
<defs>
	<filter id="Adobe_OpacityMaskFilter" filterUnits="userSpaceOnUse" x="-14.2" y="71.7" width="115.3" height="107.5">
		<feColorMatrix  type="matrix" values="1 0 0 0 0  0 1 0 0 0  0 0 1 0 0  0 0 0 1 0"/>
	</filter>
</defs>
<mask maskUnits="userSpaceOnUse" x="-14.2" y="71.7" width="115.3" height="107.5" id="path-2-inside-1_1203_56_00000158743419481100751270000013681531346404386710_">
	<path class="st1" d="M5.5,129.7c-0.1-6,1.3-11.9,4-17.3s6.6-10,11.5-13.6c4.8-3.6,10.5-5.9,16.4-6.9s12-0.5,17.7,1.3
		c5.7,1.8,10.9,5,15.2,9.2c4.3,4.2,7.5,9.4,9.3,15.1c1.9,5.7,2.4,11.8,1.4,17.7s-3.3,11.6-6.8,16.4l-12.3-8.9
		c2.1-2.9,3.5-6.3,4.1-9.9s0.3-7.2-0.9-10.6c-1.1-3.4-3-6.5-5.6-9.1c-2.6-2.5-5.7-4.4-9.1-5.5c-3.4-1.1-7.1-1.4-10.6-0.8
		c-3.6,0.6-6.9,2-9.8,4.1s-5.3,4.9-6.9,8.2c-1.6,3.2-2.4,6.8-2.4,10.4L5.5,129.7z"/>
</mask>
<path class="st2" d="M5.5,129.7l-19.7,0.2l0.2,19.7l19.7-0.2L5.5,129.7z M74.2,151.7l-11.6,15.9l15.9,11.6l11.6-15.9L74.2,151.7z
	 M61.9,142.8L46,131.2l-11.6,15.9l15.9,11.6L61.9,142.8z M20.7,129.6l0.2,19.7l19.7-0.2l-0.2-19.7L20.7,129.6z M5.5,129.7l19.7-0.2
	c0-2.9,0.6-5.8,1.9-8.4l-17.6-8.8l-17.6-8.8c-4.1,8.2-6.2,17.2-6.1,26.3L5.5,129.7z M9.5,112.4l17.6,8.8c1.3-2.6,3.2-4.8,5.5-6.6
	L20.9,98.8L9.3,83C1.9,88.4-4,95.5-8.1,103.6L9.5,112.4z M20.9,98.8l11.7,15.8c2.3-1.7,5-2.9,7.9-3.3l-3.2-19.4l-3.2-19.4
	C25.1,74,16.6,77.6,9.3,83L20.9,98.8z M37.3,91.9l3.2,19.4c2.9-0.5,5.8-0.3,8.6,0.6l6-18.7l6-18.7c-8.7-2.8-17.9-3.5-26.9-2
	L37.3,91.9z M55,93.2l-6,18.7c2.8,0.9,5.3,2.4,7.3,4.5l13.9-13.9l13.9-13.9c-6.5-6.4-14.4-11.2-23.1-14L55,93.2z M70.2,102.4
	l-13.9,13.9c2.1,2,3.6,4.5,4.5,7.3l18.7-6.1l18.7-6.1c-2.8-8.7-7.7-16.5-14.2-23L70.2,102.4z M79.6,117.6l-18.7,6.1
	c0.9,2.8,1.1,5.7,0.7,8.6l19.4,3.1l19.4,3.1c1.4-9,0.7-18.2-2.2-26.9L79.6,117.6z M81,135.3l-19.4-3.1c-0.5,2.9-1.6,5.6-3.3,7.9
	l15.9,11.6l15.9,11.6c5.4-7.4,8.9-15.9,10.3-24.9L81,135.3z M74.2,151.7l11.6-15.9l-12.3-8.9l-11.6,15.9l-11.6,15.9l12.3,8.9
	L74.2,151.7z M61.9,142.8l15.9,11.6c3.9-5.4,6.6-11.7,7.6-18.4L66,132.9l-19.4-3.1c-0.1,0.5-0.3,1-0.6,1.4L61.9,142.8z M66,132.9
	l19.4,3.1c1-6.6,0.5-13.4-1.6-19.8l-18.7,6.1l-18.7,6.1c0.2,0.5,0.2,1,0.1,1.5L66,132.9z M65.1,122.3l18.7-6.1
	c-2.1-6.4-5.7-12.2-10.4-16.9l-13.9,13.9l-13.9,13.9c0.4,0.3,0.6,0.8,0.8,1.3L65.1,122.3z M59.5,113.2l13.9-13.9
	c-4.8-4.7-10.6-8.3-17-10.3l-6,18.7l-6,18.7c0.5,0.2,0.9,0.4,1.3,0.8L59.5,113.2z M50.4,107.7l6-18.7c-6.4-2-13.2-2.6-19.8-1.5
	l3.2,19.4l3.2,19.4c0.5-0.1,1,0,1.5,0.1L50.4,107.7z M39.8,106.9l-3.2-19.4c-6.6,1.1-12.9,3.7-18.3,7.7L29.9,111l11.7,15.8
	c0.4-0.3,0.9-0.5,1.4-0.6L39.8,106.9z M29.9,111L18.3,95.2c-5.4,4-9.8,9.2-12.8,15.2l17.6,8.8l17.6,8.8c0.2-0.4,0.5-0.8,0.9-1.1
	L29.9,111z M23.1,119.2l-17.6-8.8c-3,6-4.5,12.6-4.5,19.4l19.7-0.2l19.7-0.2c0-0.5,0.1-1,0.3-1.4L23.1,119.2z M20.7,129.6l-0.2-19.7
	l-15.2,0.1l0.2,19.7l0.2,19.7l15.2-0.1L20.7,129.6z"/>
<circle class="st3" cx="60.4" cy="46.9" r="30.8"/>
<defs>
	
		<filter id="Adobe_OpacityMaskFilter_00000053529657735468551380000013613710297769785785_" filterUnits="userSpaceOnUse" x="-19.7" y="70.3" width="116.3" height="105.7">
		<feColorMatrix  type="matrix" values="1 0 0 0 0  0 1 0 0 0  0 0 1 0 0  0 0 0 1 0"/>
	</filter>
</defs>
<mask maskUnits="userSpaceOnUse" x="-19.7" y="70.3" width="116.3" height="105.7" id="path-5-inside-2_1203_56_00000056425848261204559490000015045249353778434980_">
	<path style="fill:#FFFFFF;filter:url(#Adobe_OpacityMaskFilter_00000053529657735468551380000013613710297769785785_);" d="
		M0.1,130.4c-0.3-6,0.8-12,3.2-17.6c2.5-5.5,6.2-10.4,10.9-14.2c4.7-3.8,10.3-6.5,16.2-7.7c5.9-1.3,12.1-1.1,18,0.4
		s11.3,4.5,15.8,8.5c4.5,4,8,9.1,10.2,14.7c2.2,5.6,3,11.7,2.4,17.7c-0.6,6-2.7,11.8-6,16.9l-12.9-8.3c2-3,3.2-6.5,3.6-10.1
		c0.4-3.6-0.1-7.2-1.4-10.6c-1.3-3.4-3.4-6.4-6.1-8.8s-6-4.2-9.5-5.1c-3.5-0.9-7.2-1-10.8-0.2c-3.6,0.8-6.9,2.4-9.7,4.6
		c-2.8,2.3-5.1,5.2-6.5,8.5c-1.5,3.3-2.1,6.9-1.9,10.5L0.1,130.4z"/>
</mask>
<path class="st5" d="M0.1,130.4l-19.6,1.1l1.1,19.6L1.1,150L0.1,130.4z M70.8,149l-10.6,16.5l16.5,10.5l10.6-16.4L70.8,149z
	 M57.9,140.7L41.4,130l-10.8,16.6l16.6,10.7L57.9,140.7z M15.4,129.5l1.1,19.6l19.6-1.1l-1.1-19.6L15.4,129.5z M0.1,130.4l19.6-1.1
	c-0.2-2.9,0.4-5.8,1.6-8.5l-18-8l-18-8c-3.7,8.4-5.4,17.5-4.9,26.6L0.1,130.4z M3.3,112.8l18,8c1.2-2.7,3-5,5.3-6.9L14.2,98.6
	L1.8,83.3c-7.1,5.8-12.8,13.1-16.5,21.5L3.3,112.8z M14.2,98.6l12.4,15.3c2.3-1.9,5-3.2,8-3.8l-4.1-19.2l-4.1-19.2
	c-9,1.9-17.3,5.9-24.5,11.7L14.2,98.6z M30.4,90.9l4.1,19.2c2.9-0.6,6-0.6,8.9,0.2l5-19l5-19c-8.9-2.3-18.1-2.5-27.1-0.6L30.4,90.9z
	 M48.4,91.3l-5,19c2.9,0.8,5.5,2.2,7.8,4.2l13.1-14.7l13.1-14.7c-6.8-6.1-15-10.5-23.9-12.8L48.4,91.3z M64.2,99.8l-13.1,14.7
	c2.2,2,3.9,4.4,5,7.1l18.3-7.1l18.3-7.1c-3.3-8.5-8.6-16.2-15.5-22.2L64.2,99.8z M74.4,114.4l-18.3,7.1c1.1,2.7,1.5,5.7,1.2,8.6
	l19.6,2l19.6,2c0.9-9.1-0.3-18.3-3.6-26.8L74.4,114.4z M76.8,132.1l-19.6-2c-0.3,2.9-1.3,5.7-2.9,8.2L70.8,149l16.5,10.7
	c5-7.7,8.1-16.4,9-25.5L76.8,132.1z M70.8,149l10.6-16.5l-12.9-8.3l-10.6,16.5l-10.6,16.5l12.9,8.3L70.8,149z M57.9,140.7l16.5,10.7
	c3.7-5.7,5.9-12.1,6.6-18.8l-19.6-2l-19.6-2c-0.1,0.5-0.2,1-0.5,1.4L57.9,140.7z M61.5,130.6l19.6,2c0.7-6.7-0.2-13.5-2.7-19.8
	L60,120l-18.3,7.1c0.2,0.5,0.3,1,0.2,1.5L61.5,130.6z M60,120l18.3-7.1c-2.4-6.3-6.4-11.9-11.4-16.4l-13.1,14.7l-13.1,14.7
	c0.4,0.4,0.7,0.8,0.9,1.3L60,120z M53.9,111.2L67,96.5c-5-4.5-11-7.7-17.6-9.4l-5,19l-5,19c0.5,0.1,1,0.4,1.4,0.8L53.9,111.2z
	 M44.4,106.1l5-19c-6.5-1.7-13.3-1.9-19.9-0.5l4.1,19.2l4.1,19.2c0.5-0.1,1.1-0.1,1.7,0L44.4,106.1z M33.6,105.8l-4.1-19.2
	c-6.6,1.4-12.7,4.3-18,8.6l12.4,15.3l12.4,15.3c0.4-0.3,0.9-0.6,1.5-0.7L33.6,105.8z M23.9,110.5L11.5,95.2
	c-5.2,4.2-9.4,9.7-12.1,15.8l18,8l18,8c0.2-0.5,0.5-0.9,0.9-1.2L23.9,110.5z M17.4,119l-18-8c-2.7,6.2-4,12.9-3.6,19.6l19.6-1.1
	l19.6-1.1c0-0.5,0.1-1,0.3-1.5L17.4,119z M15.4,129.5l-1.1-19.6L-1,110.7l1.1,19.6L1.1,150l15.4-0.8L15.4,129.5z"/>
<path class="st6" d="M189.5,109.5c-6.6,0-12.4-1.5-17.4-4.4c-5-2.9-8.9-7-11.8-12.2c-2.8-5.2-4.2-11.3-4.2-18.1s1.4-12.9,4.2-18
	c2.9-5.2,6.8-9.3,11.8-12.3c5-2.9,10.8-4.4,17.4-4.4s12.4,1.5,17.5,4.4s9,7,11.7,12.3c2.8,5.2,4.2,11.2,4.2,18s-1.4,12.9-4.2,18.1
	c-2.8,5.2-6.7,9.2-11.7,12.2S196.1,109.5,189.5,109.5z M189.5,96.6c3.9,0,7.2-0.9,10-2.7c2.8-1.8,5-4.3,6.5-7.5
	c1.5-3.3,2.3-7.1,2.3-11.6c0-4.5-0.8-8.3-2.3-11.5c-1.5-3.3-3.7-5.8-6.5-7.5c-2.8-1.8-6.1-2.7-10-2.7c-3.8,0-7.1,0.9-9.9,2.7
	c-2.8,1.7-5,4.2-6.5,7.5c-1.5,3.2-2.3,7-2.3,11.5c0,4.5,0.8,8.4,2.3,11.6c1.5,3.2,3.7,5.7,6.5,7.5C182.4,95.7,185.7,96.6,189.5,96.6
	z M226.8,108.4V60h12.8l1.3,8.8c1.3-2,2.8-3.8,4.5-5.3c1.7-1.5,3.7-2.6,6-3.5c2.3-0.8,4.8-1.2,7.4-1.2v15.3h-4.8
	c-1.9,0-3.7,0.2-5.3,0.7c-1.5,0.4-2.9,1.1-4,2c-1.1,1-2,2.3-2.6,3.9c-0.6,1.6-0.9,3.6-0.9,6v21.6H226.8z M276.9,109.5
	c-4,0-7.4-0.6-10.1-1.9c-2.6-1.3-4.6-3-5.9-5.2c-1.2-2.2-1.8-4.7-1.8-7.4c0-2.9,0.7-5.4,2.1-7.6c1.5-2.2,3.7-4,6.8-5.3
	c3.1-1.3,6.9-2,11.6-2h11.7c0-2.2-0.3-4-0.9-5.4c-0.5-1.4-1.4-2.5-2.6-3.2c-1.2-0.7-2.9-1.1-5-1.1c-2.2,0-4.1,0.4-5.7,1.3
	c-1.5,0.9-2.5,2.3-2.9,4.2h-13.8c0.3-3.5,1.4-6.5,3.4-9c2-2.6,4.6-4.6,7.9-6s7-2.2,11.2-2.2c4.6,0,8.6,0.8,12,2.3
	c3.4,1.5,6,3.6,7.9,6.5c1.9,2.9,2.9,6.5,2.9,10.8v30h-12l-1.7-7c-0.7,1.2-1.5,2.3-2.5,3.4c-1,1-2.1,1.8-3.4,2.6
	c-1.3,0.7-2.7,1.2-4.2,1.6C280.4,109.3,278.7,109.5,276.9,109.5z M280.4,98.6c1.5,0,2.9-0.3,4-0.8s2.1-1.2,3-2.1
	c0.8-0.9,1.5-1.9,2-3.1c0.6-1.2,1-2.5,1.2-3.9v-0.1h-9.3c-1.6,0-2.9,0.2-4,0.7c-1,0.4-1.8,1-2.3,1.7c-0.5,0.8-0.8,1.7-0.8,2.7
	c0,1.1,0.3,2,0.8,2.8c0.6,0.7,1.3,1.2,2.2,1.6C278.2,98.4,279.3,98.6,280.4,98.6z M311,108.4V60h12.6l1.2,7.8
	c1.5-2.7,3.6-4.8,6.2-6.4c2.7-1.7,6-2.5,9.8-2.5c4,0,7.4,0.9,10.2,2.6c2.8,1.7,4.8,4.2,6.2,7.5c1.5,3.2,2.2,7.1,2.2,11.8v27.6h-14.3
	V82.1c0-3.5-0.8-6.2-2.3-8.2c-1.5-2-3.8-3-7.1-3c-1.9,0-3.7,0.5-5.3,1.4c-1.5,0.9-2.8,2.2-3.6,3.9s-1.3,3.8-1.3,6.2v25.8H311z
	 M386,130.6c-4.7,0-8.8-0.6-12.3-1.7c-3.5-1.1-6.1-2.8-8.1-5c-1.9-2.2-2.8-5.1-2.8-8.4c0-2.4,0.6-4.7,1.9-6.8c1.3-2.1,3.2-4,5.7-5.6
	c2.4-1.7,5.3-3,8.7-4.1l4.8,7.3c-2.8,0.8-4.9,1.9-6.3,3.3c-1.3,1.3-2,2.8-2,4.5c0,1.3,0.4,2.4,1.3,3.3c0.9,0.9,2.1,1.6,3.6,2
	c1.6,0.4,3.4,0.7,5.3,0.7c1.9,0,3.5-0.2,4.8-0.7c1.4-0.4,2.5-1.1,3.3-2c0.8-0.8,1.2-1.9,1.2-3.1c0-1.6-0.5-2.9-1.6-3.8
	c-1.1-1-3.3-1.6-6.7-1.8c-3.1-0.3-6-0.6-8.5-1.1c-2.5-0.5-4.7-1.1-6.7-1.8c-1.9-0.7-3.6-1.5-5-2.3s-2.5-1.7-3.3-2.5v-2.2l10.6-11.6
	l9.9,3.1l-12.8,13l4.4-7.3c0.6,0.4,1.3,0.8,2,1.2c0.7,0.3,1.6,0.6,2.6,0.9c1,0.3,2.3,0.5,3.8,0.8c1.5,0.2,3.5,0.4,6,0.7
	c4.2,0.4,7.6,1.2,10.3,2.4c2.8,1.2,4.8,2.8,6,4.8c1.3,2,2,4.5,2,7.5c0,2.9-0.8,5.6-2.4,8.2s-4,4.6-7.3,6.1
	C395.2,129.8,391,130.6,386,130.6z M386.1,94.4c-4,0-7.5-0.8-10.5-2.4c-2.9-1.6-5.2-3.7-6.8-6.3c-1.6-2.7-2.4-5.7-2.4-9
	c0-3.3,0.8-6.2,2.4-8.8c1.6-2.7,3.9-4.8,6.8-6.4c2.9-1.7,6.4-2.5,10.5-2.5c4.1,0,7.6,0.8,10.6,2.5c2.9,1.6,5.2,3.7,6.7,6.4
	c1.5,2.6,2.3,5.6,2.3,8.8c0,3.3-0.8,6.3-2.3,9c-1.5,2.6-3.8,4.7-6.7,6.3C393.7,93.6,390.2,94.4,386.1,94.4z M386.1,83.5
	c2.2,0,4-0.6,5.4-1.7c1.4-1.2,2.1-2.8,2.1-5.1c0-2.2-0.7-3.9-2.1-5.1c-1.4-1.2-3.2-1.7-5.4-1.7s-4,0.6-5.5,1.7
	c-1.4,1.2-2.1,2.8-2.1,5.1c0,2.2,0.7,3.9,2.1,5.1C382.1,82.9,383.9,83.5,386.1,83.5z M394.1,69.9L392,60h20.1v8.2L394.1,69.9z
	 M438.2,109.5c-5,0-9.4-1-13.2-3.1c-3.8-2.1-6.8-5-8.9-8.7c-2.1-3.8-3.2-8.1-3.2-13c0-5,1.1-9.4,3.2-13.3c2.1-3.9,5.1-7,8.8-9.2
	c3.8-2.2,8.2-3.4,13.2-3.4c4.9,0,9.1,1.1,12.8,3.2c3.6,2.1,6.5,5,8.5,8.6c2.1,3.6,3.2,7.7,3.2,12.5c0,0.6,0,1.4-0.1,2.2
	c0,0.8-0.1,1.6-0.2,2.4h-39.1v-8.4h24.7c-0.1-2.7-1.1-4.8-3-6.4c-1.8-1.7-4-2.5-6.7-2.5c-2,0-3.9,0.5-5.6,1.4c-1.7,1-3,2.4-4,4.3
	c-1,1.9-1.4,4.4-1.4,7.3v2.9c0,2.2,0.4,4.2,1.2,6c0.9,1.7,2.1,3.1,3.7,4c1.7,1,3.6,1.4,5.9,1.4c2.1,0,3.8-0.4,5.2-1.2
	c1.4-0.9,2.5-2,3.3-3.4h14.7c-0.9,3.1-2.4,5.9-4.6,8.4c-2.2,2.4-4.8,4.4-8,5.9C445.4,108.8,442,109.5,438.2,109.5z M481.6,108.4
	V41.2H496v25.4l23.2-25.4h17.7l-24.7,26.6l25.5,40.6h-17.7l-18.1-29.5l-6,6.4v23H481.6z M558.7,109.5c-5,0-9.4-1-13.2-3.1
	c-3.8-2.1-6.8-5-8.9-8.7c-2.1-3.8-3.2-8.1-3.2-13c0-5,1.1-9.4,3.2-13.3c2.1-3.9,5.1-7,8.8-9.2c3.8-2.2,8.2-3.4,13.2-3.4
	c4.9,0,9.1,1.1,12.8,3.2s6.5,5,8.5,8.6c2.1,3.6,3.2,7.7,3.2,12.5c0,0.6,0,1.4-0.1,2.2c0,0.8-0.1,1.6-0.2,2.4h-39.1v-8.4h24.7
	c-0.1-2.7-1.1-4.8-3-6.4c-1.8-1.7-4-2.5-6.7-2.5c-2,0-3.9,0.5-5.6,1.4s-3,2.4-4,4.3c-1,1.9-1.4,4.4-1.4,7.3v2.9c0,2.2,0.4,4.2,1.2,6
	c0.9,1.7,2.1,3.1,3.7,4c1.7,1,3.6,1.4,5.9,1.4c2.1,0,3.8-0.4,5.2-1.2c1.4-0.9,2.5-2,3.3-3.4h14.7c-0.9,3.1-2.4,5.9-4.6,8.4
	c-2.2,2.4-4.8,4.4-8,5.9C566,108.8,562.5,109.5,558.7,109.5z M591,129.5l11.6-26.5h-2.9l-19.5-43h15.6l13.3,29.5L620.4,60h15.5
	l-29.6,69.5H591z"/>
</svg>
