<?xml version="1.0" encoding="utf-8"?>
<!-- Generator: Adobe Illustrator 27.0.0, SVG Export Plug-In . SVG Version: 6.00 Build 0)  -->
<svg version="1.1" id="Capa_1" xmlns="http://www.w3.org/2000/svg" xmlns:xlink="http://www.w3.org/1999/xlink" x="0px" y="0px"
	 viewBox="0 0 500 500" style="enable-background:new 0 0 500 500;" xml:space="preserve">
<style type="text/css">
	.st0{fill:#F84E03;}
	.st1{fill:#DBDBDB;}
	.st2{fill:#FFFFFF;}
</style>
<circle class="st0" cx="250" cy="250" r="250"/>
<g>
	<g>
		<path class="st1" d="M244.5,411.5c-0.3,1.1-0.3,1.6-0.5,2.1c-0.5,1.3,0,2.1,1.3,2.4c1.6,0.5,3.4,1.3,5,1.9c1.9,0.5,3.2,0,4-1.9
			c0.8-2.1,1.6-4.2,2.4-6.3c14-38.8,28-77.3,42-116.1c0.3-0.8,0.5-1.9,1.1-2.9c-37-13.5-73.9-26.7-110.9-40.1
			c-0.3,0.8-0.8,1.6-1.1,2.1c-14.5,40.4-29.3,80.8-43.8,121.2c-0.3,0.8-0.8,1.6-0.8,2.4c0.3,1.3,0.5,2.9,1.6,3.4
			c1.9,1.1,4,1.6,5.8,2.1c0.5,0,1.6-0.8,1.9-1.3c0.8-2.4,2.4-1.3,3.7-0.8c1.3,0.5,2.6,1.1,1.9,2.9c-0.8,2.4-1.9,4.8-2.6,7.1
			c-0.5,1.9-1.9,2.1-3.4,1.6c-4.2-1.6-8.4-3.2-12.7-4.8c-5.8-2.1-8.4-7.4-6.6-13.5c4.2-15,8.4-30.1,12.1-45.4
			c6.3-25.3,12.1-50.7,17.9-76c6.1-27.2,11.1-54.6,15.3-82.1c1.3-8.4,2.1-16.9,4.8-25.1c11.9-34.3,34.8-57,69.7-67.1
			c27.4-7.9,53.6-4.2,78.1,10.3c37,21.7,55.4,64.7,47,106.7c-2.9,15.1-9.8,28.2-17.7,40.9c-16.1,25.9-31.1,52.8-44.6,80
			c-14.5,29-28.5,58.1-42.8,87.1c-2.9,6.1-5.5,12.4-8.5,18.5c-2.6,5.8-7.7,7.9-13.5,5.8c-4.2-1.3-8.2-3.2-12.4-4.5
			c-2.4-0.8-2.6-2.1-1.9-4s1.6-3.7,2.1-5.8s1.6-2.6,3.7-1.9C242.9,411,243.7,411.2,244.5,411.5z M308.4,271.3
			c0.5-1.1,1.1-1.9,1.6-2.6c10.6-19.3,20.6-38.5,31.7-57.3c18.2-31.1,11.1-71.8-17.4-94c-25.1-19.8-59.9-21.1-86.1-2.6
			c-16.6,11.1-26.9,26.7-30.6,46.5c-3.4,18.2-6.9,36.7-10.3,54.9c-0.8,4.5-2.1,9-2.9,13.7C232.4,243.6,270.1,257.4,308.4,271.3z"/>
		<path class="st1" d="M255.1,436.6c-2.4,0-4.8-0.5-7.1-1.3s-4.5-1.6-6.6-2.4c-1.9-0.8-3.7-1.6-5.5-2.1c-4.8-1.6-6.9-4.5-7.7-6.6
			c-1.1-2.1-1.6-5.5,0.3-9.8c0.8-1.6,1.3-2.9,1.6-4.5c1.1-4.5,4-6.9,5.8-7.9c2.1-1.1,5.5-2.1,10-0.3l1.1,0.3l0.5,0.5
			c0.3,0,0.3,0,0.5,0.3l1.6,0.5c6.6-18,12.9-36.2,19.5-54.1c6.3-17.7,12.7-35.4,19.3-53.1c-15.8-5.8-31.4-11.4-46.7-16.9
			c-15.8-5.8-31.4-11.4-47.2-17.2c-6.6,18-12.9,36.2-19.5,54.1c-6.3,17.7-12.9,35.6-19.3,53.3c1.9,0.3,3.4,0.8,4,1.3
			c1.6,0.8,5.5,2.1,7.4,6.6c1.1,2.6,1.1,5.5,0,8.2c-0.5,1.3-0.8,2.4-1.3,3.7c-0.3,1.1-0.8,2.1-1.1,2.9c-1.1,3.2-2.9,5.5-5.5,6.9
			c-2.1,1.1-5.3,2.1-9.5,0.5h-0.3l-12.7-4.8c-10.3-3.7-15.6-14-12.1-24.8c4-14.5,8.4-29.8,11.9-44.9c6.3-25.3,12.1-51,17.9-76
			c5.8-25.6,10.8-52.3,15.3-81.6c0.3-1.9,0.5-3.7,0.8-5.5c1.1-6.9,2.1-14,4.2-21.1c13.2-37.8,38.5-62.3,76-73.1
			c29.6-8.5,58.3-4.8,85.5,11.3c40.1,23.5,60.7,70.2,51.2,116.4c-3.4,17.4-11.4,31.9-19,44.1c-16.1,25.9-30.9,52.5-44.1,79.2
			c-9.8,19.3-19.3,39.1-28.5,58.1c-4.8,9.8-9.5,19.3-14.2,29c-1.3,2.9-2.6,5.8-4,9c-1.3,3.2-2.9,6.3-4.2,9.5
			C269,432.1,262.4,436.6,255.1,436.6z M183.2,238.6l9,3.2c18.5,6.9,37.2,13.5,55.7,20.1s36.7,13.2,55.2,20.1l9.8,3.4l-4.8,9.2
			c-0.3,0.3-0.3,0.5-0.3,0.8l-0.3,0.8c-6.3,17.2-12.4,34.3-18.5,51.2c6.1-12.1,12.1-24.5,18.2-36.7c13.5-27.2,28.5-54.4,45.1-80.8
			c6.6-10.6,13.7-23.2,16.4-37.8c7.7-38.5-9.2-77.3-42.5-96.9c-22.4-13.2-46.5-16.4-71-9.5c-31.7,9.2-52.5,29-63.6,61.2
			c-1.9,5.5-2.6,11.4-3.4,17.7c-0.3,1.9-0.5,3.7-0.8,5.5c-4.5,29.6-9.5,56.5-15.3,82.6c-3.4,15-6.9,30.1-10.6,45.4
			c6.1-16.4,11.9-33,17.9-49.4l0.5-1.1c0.3-0.3,0.3-0.5,0.5-1.1l0.3-0.3L183.2,238.6z M313.1,282.7l-7.7-2.9
			c-40.6-14.5-77.9-28.2-114-41.2l-7.1-2.6l1.3-7.7c0.5-2.9,1.1-5.3,1.6-7.9c0.5-2.1,0.8-4,1.3-5.8c1.9-9.2,3.4-18.7,5.3-28
			c1.6-9,3.4-18.2,5-27.2c4.2-22.2,15.8-39.9,34.6-52.5c29.3-20.6,68.4-19.5,96.9,3.2c31.9,24.8,40.4,70.5,19.8,105.9
			c-7.9,13.5-15.3,27.2-22.7,40.6c-2.9,5.5-5.8,10.8-9,16.4l-0.5,0.8c-0.5,0.8-0.8,1.1-1.1,1.6L313.1,282.7z M205.2,223.8
			c31.7,11.4,64.4,23.2,99.2,36.2c2.1-4,4.2-7.9,6.6-11.9c7.4-13.7,15-27.7,23-41.2c16.1-27.4,9.5-62.8-15-82.1
			c-22.2-17.4-52.3-18.5-75-2.4c-14.8,9.8-23.8,23.5-26.9,40.7c-1.6,9-3.4,17.9-5,27.2c-1.9,9.2-3.4,18.5-5.3,27.7
			C206.2,219.9,205.7,222,205.2,223.8z"/>
	</g>
	<g>
		<path class="st2" d="M231.6,411.5c-0.3,1.1-0.3,1.6-0.5,2.1c-0.5,1.3,0,2.1,1.3,2.4c1.6,0.5,3.4,1.3,5,1.9c1.9,0.5,3.2,0,4-1.9
			c0.8-2.1,1.6-4.2,2.4-6.3c14-38.8,28-77.3,42-116.1c0.3-0.8,0.5-1.9,1.1-2.9c-37-13.5-73.9-26.7-110.9-40.1
			c-0.3,0.8-0.8,1.6-1.1,2.1c-14.5,40.4-29.3,80.8-43.8,121.2c-0.3,0.8-0.8,1.6-0.8,2.4c0.3,1.3,0.5,2.9,1.6,3.4
			c1.9,1.1,4,1.6,5.8,2.1c0.5,0,1.6-0.8,1.9-1.3c0.8-2.4,2.4-1.3,3.7-0.8c1.3,0.5,2.6,1.1,1.9,2.9c-0.8,2.4-1.9,4.8-2.6,7.1
			c-0.5,1.9-1.9,2.1-3.4,1.6c-4.2-1.6-8.4-3.2-12.7-4.8c-5.8-2.1-8.4-7.4-6.6-13.5c4.2-15,8.5-30.1,12.1-45.4
			c6.3-25.3,12.1-50.7,17.9-76c6.1-27.2,11.1-54.6,15.3-82.1c1.3-8.4,2.1-16.9,4.8-25.1c11.9-34.3,34.8-57,69.7-67.1
			c27.5-7.9,53.6-4.2,78.1,10.3c37,21.7,55.4,64.7,47,106.7c-2.9,15.1-9.8,28.2-17.7,40.9c-16.1,25.9-31.1,52.8-44.6,80
			c-14.5,29-28.5,58.1-42.8,87.1c-2.9,6.1-5.5,12.4-8.4,18.5c-2.6,5.8-7.7,7.9-13.5,5.8c-4.2-1.3-8.2-3.2-12.4-4.5
			c-2.4-0.8-2.6-2.1-1.9-4s1.6-3.7,2.1-5.8s1.6-2.6,3.7-1.9C230,411,230.8,411.2,231.6,411.5z M295.4,271.3c0.5-1.1,1.1-1.9,1.6-2.6
			c10.6-19.3,20.6-38.5,31.7-57.3c18.2-31.1,11.1-71.8-17.4-94c-25.1-19.8-59.9-21.1-86.1-2.6c-16.6,11.1-26.9,26.7-30.6,46.5
			c-3.4,18.2-6.9,36.7-10.3,54.9c-0.8,4.5-2.1,9-2.9,13.7C219.4,243.6,257.2,257.4,295.4,271.3z"/>
		<path class="st2" d="M242.1,436.6c-2.4,0-4.8-0.5-7.1-1.3s-4.5-1.6-6.6-2.4c-1.9-0.8-3.7-1.6-5.5-2.1c-4.8-1.6-6.9-4.5-7.7-6.6
			c-1.1-2.1-1.6-5.5,0.3-9.8c0.8-1.6,1.3-2.9,1.6-4.5c1.1-4.5,4-6.9,5.8-7.9c2.1-1.1,5.5-2.1,10-0.3l1.1,0.3l0.5,0.5
			c0.3,0,0.3,0,0.5,0.3l1.6,0.5c6.6-18,12.9-36.2,19.5-54.1c6.3-17.7,12.7-35.4,19.3-53.1c-15.8-5.8-31.4-11.4-46.7-16.9
			c-15.8-5.8-31.4-11.4-47.2-17.2c-6.6,18-12.9,36.2-19.5,54.1c-6.3,17.7-12.9,35.6-19.3,53.3c1.9,0.3,3.4,0.8,4,1.3
			c1.6,0.8,5.5,2.1,7.4,6.6c1.1,2.6,1.1,5.5,0,8.2c-0.5,1.3-0.8,2.4-1.3,3.7c-0.3,1.1-0.8,2.1-1.1,2.9c-1.1,3.2-2.9,5.5-5.5,6.9
			c-2.1,1.1-5.3,2.1-9.5,0.5h-0.3l-12.7-4.8c-10.3-3.7-15.6-14-12.1-24.8c4-14.5,8.4-29.8,11.9-44.9c6.3-25.3,12.1-51,18-76
			c5.8-25.6,10.8-52.3,15.3-81.6c0.3-1.9,0.5-3.7,0.8-5.5c1.1-6.9,2.1-14,4.2-21.1c13.2-37.8,38.5-62.3,76-73.1
			c29.6-8.5,58.3-4.8,85.5,11.3c40.1,23.5,60.7,70.2,51.2,116.4c-3.4,17.4-11.4,31.9-19,44.1c-16.1,25.9-30.9,52.5-44.1,79.2
			c-9.8,19.3-19.3,39.1-28.5,58.1c-4.8,9.8-9.5,19.3-14.2,29c-1.3,2.9-2.6,5.8-4,9s-2.9,6.3-4.2,9.5
			C256.1,432.1,249.5,436.6,242.1,436.6z M170.3,238.6l9,3.2c18.5,6.9,37.2,13.5,55.7,20.1s36.7,13.2,55.2,20.1l9.8,3.4l-4.8,9.2
			c-0.3,0.3-0.3,0.5-0.3,0.8l-0.3,0.8c-6.3,17.2-12.4,34.3-18.5,51.2c6.1-12.1,12.1-24.5,18.2-36.7c13.5-27.2,28.5-54.4,45.1-80.8
			c6.6-10.6,13.7-23.2,16.4-37.8c7.7-38.5-9.2-77.3-42.5-96.9c-22.4-13.2-46.5-16.4-71-9.5c-31.7,9.2-52.5,29-63.6,61.2
			c-1.9,5.5-2.6,11.4-3.4,17.7c-0.3,1.9-0.5,3.7-0.8,5.5c-4.5,29.6-9.5,56.5-15.3,82.6c-3.4,15-6.9,30.1-10.6,45.4
			c6.1-16.4,11.9-33,17.9-49.4l0.5-1.1c0.3-0.3,0.3-0.5,0.5-1.1l0.3-0.3L170.3,238.6z M300.2,282.7l-7.7-2.9
			c-40.6-14.5-77.9-28.2-114-41.2l-7.1-2.6l1.3-7.7c0.5-2.9,1.1-5.3,1.6-7.9c0.5-2.1,0.8-4,1.3-5.8c1.9-9.2,3.4-18.7,5.3-28
			c1.6-9,3.4-18.2,5-27.2c4.2-22.2,15.8-39.9,34.6-52.5c29.3-20.6,68.4-19.5,96.9,3.2c31.9,24.8,40.4,70.5,19.8,105.9
			c-7.9,13.5-15.3,27.2-22.7,40.6c-2.9,5.5-5.8,10.8-9,16.4l-0.5,0.8c-0.5,0.8-0.8,1.1-1.1,1.6L300.2,282.7z M192.2,223.8
			c31.7,11.4,64.4,23.2,99.2,36.2c2.1-4,4.2-7.9,6.6-11.9c7.4-13.7,15-27.7,23-41.2c16.1-27.4,9.5-62.8-15-82.1
			c-22.2-17.4-52.3-18.5-75-2.4c-14.8,9.8-23.8,23.5-26.9,40.7c-1.6,9-3.4,17.9-5,27.2c-1.9,9.2-3.4,18.5-5.3,27.7
			C193.3,219.9,192.8,222,192.2,223.8z"/>
	</g>
</g>
</svg>
