<?xml version="1.0" encoding="utf-8"?>
<!-- Generator: Adobe Illustrator 27.0.0, SVG Export Plug-In . SVG Version: 6.00 Build 0)  -->
<svg version="1.1" id="Capa_1" xmlns="http://www.w3.org/2000/svg" xmlns:xlink="http://www.w3.org/1999/xlink" x="0px" y="0px"
	 viewBox="0 0 500 500" style="enable-background:new 0 0 500 500;" xml:space="preserve">
<style type="text/css">
	.st0{fill:#F84E03;}
	.st1{fill:#DBDBDB;}
	.st2{fill:#FFFFFF;}
</style>
<circle class="st0" cx="250" cy="250" r="250"/>
<g>
	<g>
		<path class="st1" d="M244.49,411.51c-0.26,1.06-0.26,1.58-0.53,2.11c-0.53,1.32,0,2.11,1.32,2.38c1.58,0.53,3.43,1.32,5.02,1.85
			c1.85,0.53,3.17,0,3.96-1.85c0.79-2.11,1.58-4.22,2.38-6.34c13.99-38.8,27.98-77.34,41.97-116.15c0.26-0.79,0.53-1.85,1.06-2.9
			c-36.96-13.46-73.91-26.66-110.87-40.12c-0.26,0.79-0.79,1.58-1.06,2.11c-14.52,40.39-29.3,80.78-43.82,121.16
			c-0.26,0.79-0.79,1.58-0.79,2.38c0.26,1.32,0.53,2.9,1.58,3.43c1.85,1.06,3.96,1.58,5.81,2.11c0.53,0,1.58-0.79,1.85-1.32
			c0.79-2.38,2.38-1.32,3.7-0.79c1.32,0.53,2.64,1.06,1.85,2.9c-0.79,2.38-1.85,4.75-2.64,7.13c-0.53,1.85-1.85,2.11-3.43,1.58
			c-4.22-1.58-8.45-3.17-12.67-4.75c-5.81-2.11-8.45-7.39-6.6-13.46c4.22-15.05,8.45-30.09,12.14-45.4
			c6.34-25.34,12.14-50.68,17.95-76.02c6.07-27.19,11.09-54.64,15.31-82.1c1.32-8.45,2.11-16.89,4.75-25.08
			c11.88-34.32,34.84-57.02,69.69-67.05c27.45-7.92,53.59-4.22,78.14,10.3c36.96,21.65,55.43,64.67,46.99,106.65
			c-2.9,15.05-9.77,28.25-17.69,40.92c-16.1,25.87-31.15,52.8-44.61,79.98c-14.52,29.04-28.51,58.07-42.76,87.11
			c-2.9,6.07-5.54,12.41-8.45,18.48c-2.64,5.81-7.66,7.92-13.46,5.81c-4.22-1.32-8.18-3.17-12.41-4.49
			c-2.38-0.79-2.64-2.11-1.85-3.96c0.79-1.85,1.58-3.7,2.11-5.81c0.53-2.11,1.58-2.64,3.7-1.85
			C242.91,410.98,243.7,411.24,244.49,411.51z M308.37,271.34c0.53-1.06,1.06-1.85,1.58-2.64c10.56-19.27,20.59-38.54,31.68-57.28
			c18.21-31.15,11.09-71.8-17.42-93.98c-25.08-19.8-59.92-21.12-86.06-2.64c-16.63,11.09-26.93,26.66-30.62,46.46
			c-3.43,18.21-6.86,36.69-10.3,54.91c-0.79,4.49-2.11,8.98-2.9,13.73C232.35,243.62,270.1,257.35,308.37,271.34z"/>
		<path class="st1" d="M255.05,436.58c-2.38,0-4.75-0.53-7.13-1.32c-2.38-0.79-4.49-1.58-6.6-2.38c-1.85-0.79-3.7-1.58-5.54-2.11
			c-4.75-1.58-6.86-4.49-7.66-6.6c-1.06-2.11-1.58-5.54,0.26-9.77c0.79-1.58,1.32-2.9,1.58-4.49c1.06-4.49,3.96-6.86,5.81-7.92
			c2.11-1.06,5.54-2.11,10.03-0.26l1.06,0.26l0.53,0.53c0.26,0,0.26,0,0.53,0.26l1.58,0.53c6.6-17.95,12.93-36.16,19.53-54.11
			c6.34-17.69,12.67-35.37,19.27-53.06c-15.84-5.81-31.41-11.35-46.72-16.89c-15.84-5.81-31.41-11.35-47.25-17.16
			c-6.6,17.95-12.93,36.16-19.53,54.11c-6.34,17.69-12.93,35.64-19.27,53.32c1.85,0.26,3.43,0.79,3.96,1.32
			c1.58,0.79,5.54,2.11,7.39,6.6c1.06,2.64,1.06,5.54,0,8.18c-0.53,1.32-0.79,2.38-1.32,3.7c-0.26,1.06-0.79,2.11-1.06,2.9
			c-1.06,3.17-2.9,5.54-5.54,6.86c-2.11,1.06-5.28,2.11-9.5,0.53h-0.26l-12.67-4.75c-10.3-3.7-15.57-13.99-12.14-24.81
			c3.96-14.52,8.45-29.83,11.88-44.88c6.34-25.34,12.14-50.95,17.95-76.02c5.81-25.61,10.82-52.27,15.31-81.57
			c0.26-1.85,0.53-3.7,0.79-5.54c1.06-6.86,2.11-13.99,4.22-21.12c13.2-37.75,38.54-62.3,76.02-73.12
			c29.57-8.45,58.34-4.75,85.53,11.35c40.12,23.49,60.71,70.22,51.21,116.41c-3.43,17.42-11.35,31.94-19.01,44.08
			c-16.1,25.87-30.89,52.53-44.08,79.19c-9.77,19.27-19.27,39.07-28.51,58.07c-4.75,9.77-9.5,19.27-14.25,29.04
			c-1.32,2.9-2.64,5.81-3.96,8.98c-1.32,3.17-2.9,6.34-4.22,9.5C269.04,432.1,262.44,436.58,255.05,436.58z M183.25,238.6l8.98,3.17
			c18.48,6.86,37.22,13.46,55.7,20.06c18.48,6.6,36.69,13.2,55.17,20.06l9.77,3.43l-4.75,9.24c-0.26,0.26-0.26,0.53-0.26,0.79
			l-0.26,0.79c-6.34,17.16-12.41,34.32-18.48,51.21c6.07-12.14,12.14-24.55,18.21-36.69c13.46-27.19,28.51-54.38,45.14-80.78
			c6.6-10.56,13.73-23.23,16.37-37.75c7.66-38.54-9.24-77.34-42.5-96.88c-22.44-13.2-46.46-16.37-71.01-9.5
			C223.64,95,202.78,114.8,191.7,147c-1.85,5.54-2.64,11.35-3.43,17.69c-0.26,1.85-0.53,3.7-0.79,5.54
			c-4.49,29.57-9.5,56.49-15.31,82.62c-3.43,15.05-6.86,30.09-10.56,45.4c6.07-16.37,11.88-33,17.95-49.36l0.53-1.06
			c0.26-0.26,0.26-0.53,0.53-1.06l0.26-0.26L183.25,238.6z M313.12,282.69l-7.66-2.9c-40.65-14.52-77.87-28.25-114.04-41.18
			l-7.13-2.64l1.32-7.66c0.53-2.9,1.06-5.28,1.58-7.92c0.53-2.11,0.79-3.96,1.32-5.81c1.85-9.24,3.43-18.74,5.28-27.98
			c1.58-8.98,3.43-18.21,5.02-27.19c4.22-22.17,15.84-39.86,34.58-52.53c29.3-20.59,68.37-19.53,96.88,3.17
			c31.94,24.81,40.39,70.48,19.8,105.85c-7.92,13.46-15.31,27.19-22.7,40.65c-2.9,5.54-5.81,10.82-8.98,16.37l-0.53,0.79
			c-0.53,0.79-0.79,1.06-1.06,1.58L313.12,282.69z M205.16,223.82c31.68,11.35,64.41,23.23,99.25,36.16
			c2.11-3.96,4.22-7.92,6.6-11.88c7.39-13.73,15.05-27.72,22.97-41.18c16.1-27.45,9.5-62.83-15.05-82.1
			c-22.17-17.42-52.27-18.48-74.97-2.38c-14.78,9.77-23.76,23.49-26.93,40.65c-1.58,8.98-3.43,17.95-5.02,27.19
			c-1.85,9.24-3.43,18.48-5.28,27.72C206.22,219.86,205.69,221.97,205.16,223.82z"/>
	</g>
	<g>
		<path class="st2" d="M231.56,411.51c-0.26,1.06-0.26,1.58-0.53,2.11c-0.53,1.32,0,2.11,1.32,2.38c1.58,0.53,3.43,1.32,5.02,1.85
			c1.85,0.53,3.17,0,3.96-1.85c0.79-2.11,1.58-4.22,2.38-6.34c13.99-38.8,27.98-77.34,41.97-116.15c0.26-0.79,0.53-1.85,1.06-2.9
			c-36.96-13.46-73.91-26.66-110.87-40.12c-0.26,0.79-0.79,1.58-1.06,2.11c-14.52,40.39-29.3,80.78-43.82,121.16
			c-0.26,0.79-0.79,1.58-0.79,2.38c0.26,1.32,0.53,2.9,1.58,3.43c1.85,1.06,3.96,1.58,5.81,2.11c0.53,0,1.58-0.79,1.85-1.32
			c0.79-2.38,2.38-1.32,3.7-0.79c1.32,0.53,2.64,1.06,1.85,2.9c-0.79,2.38-1.85,4.75-2.64,7.13c-0.53,1.85-1.85,2.11-3.43,1.58
			c-4.22-1.58-8.45-3.17-12.67-4.75c-5.81-2.11-8.45-7.39-6.6-13.46c4.22-15.05,8.45-30.09,12.14-45.4
			c6.34-25.34,12.14-50.68,17.95-76.02c6.07-27.19,11.09-54.64,15.31-82.1c1.32-8.45,2.11-16.89,4.75-25.08
			c11.88-34.32,34.84-57.02,69.69-67.05c27.45-7.92,53.59-4.22,78.14,10.3c36.96,21.65,55.43,64.67,46.99,106.65
			c-2.9,15.05-9.77,28.25-17.69,40.92c-16.1,25.87-31.15,52.8-44.61,79.98c-14.52,29.04-28.51,58.07-42.76,87.11
			c-2.9,6.07-5.54,12.41-8.45,18.48c-2.64,5.81-7.66,7.92-13.46,5.81c-4.22-1.32-8.18-3.17-12.41-4.49
			c-2.38-0.79-2.64-2.11-1.85-3.96c0.79-1.85,1.58-3.7,2.11-5.81c0.53-2.11,1.58-2.64,3.7-1.85
			C229.97,410.98,230.76,411.24,231.56,411.51z M295.44,271.34c0.53-1.06,1.06-1.85,1.58-2.64c10.56-19.27,20.59-38.54,31.68-57.28
			c18.21-31.15,11.09-71.8-17.42-93.98c-25.08-19.8-59.92-21.12-86.06-2.64c-16.63,11.09-26.93,26.66-30.62,46.46
			c-3.43,18.21-6.86,36.69-10.3,54.91c-0.79,4.49-2.11,8.98-2.9,13.73C219.41,243.62,257.16,257.35,295.44,271.34z"/>
		<path class="st2" d="M242.12,436.58c-2.38,0-4.75-0.53-7.13-1.32c-2.38-0.79-4.49-1.58-6.6-2.38c-1.85-0.79-3.7-1.58-5.54-2.11
			c-4.75-1.58-6.86-4.49-7.66-6.6c-1.06-2.11-1.58-5.54,0.26-9.77c0.79-1.58,1.32-2.9,1.58-4.49c1.06-4.49,3.96-6.86,5.81-7.92
			c2.11-1.06,5.54-2.11,10.03-0.26l1.06,0.26l0.53,0.53c0.26,0,0.26,0,0.53,0.26l1.58,0.53c6.6-17.95,12.93-36.16,19.53-54.11
			c6.34-17.69,12.67-35.37,19.27-53.06c-15.84-5.81-31.41-11.35-46.72-16.89c-15.84-5.81-31.41-11.35-47.25-17.16
			c-6.6,17.95-12.93,36.16-19.53,54.11c-6.34,17.69-12.93,35.64-19.27,53.32c1.85,0.26,3.43,0.79,3.96,1.32
			c1.58,0.79,5.54,2.11,7.39,6.6c1.06,2.64,1.06,5.54,0,8.18c-0.53,1.32-0.79,2.38-1.32,3.7c-0.26,1.06-0.79,2.11-1.06,2.9
			c-1.06,3.17-2.9,5.54-5.54,6.86c-2.11,1.06-5.28,2.11-9.5,0.53h-0.26l-12.67-4.75c-10.3-3.7-15.57-13.99-12.14-24.81
			c3.96-14.52,8.45-29.83,11.88-44.88c6.34-25.34,12.14-50.95,17.95-76.02c5.81-25.61,10.82-52.27,15.31-81.57
			c0.26-1.85,0.53-3.7,0.79-5.54c1.06-6.86,2.11-13.99,4.22-21.12c13.2-37.75,38.54-62.3,76.02-73.12
			c29.57-8.45,58.34-4.75,85.53,11.35c40.12,23.49,60.71,70.22,51.21,116.41c-3.43,17.42-11.35,31.94-19.01,44.08
			c-16.1,25.87-30.89,52.53-44.08,79.19c-9.77,19.27-19.27,39.07-28.51,58.07c-4.75,9.77-9.5,19.27-14.25,29.04
			c-1.32,2.9-2.64,5.81-3.96,8.98s-2.9,6.34-4.22,9.5C256.11,432.1,249.51,436.58,242.12,436.58z M170.31,238.6l8.98,3.17
			c18.48,6.86,37.22,13.46,55.7,20.06c18.48,6.6,36.69,13.2,55.17,20.06l9.77,3.43l-4.75,9.24c-0.26,0.26-0.26,0.53-0.26,0.79
			l-0.26,0.79c-6.34,17.16-12.41,34.32-18.48,51.21c6.07-12.14,12.14-24.55,18.21-36.69c13.46-27.19,28.51-54.38,45.14-80.78
			c6.6-10.56,13.73-23.23,16.37-37.75c7.66-38.54-9.24-77.34-42.5-96.88c-22.44-13.2-46.46-16.37-71.01-9.5
			C210.7,95,189.85,114.8,178.76,147c-1.85,5.54-2.64,11.35-3.43,17.69c-0.26,1.85-0.53,3.7-0.79,5.54
			c-4.49,29.57-9.5,56.49-15.31,82.62c-3.43,15.05-6.86,30.09-10.56,45.4c6.07-16.37,11.88-33,17.95-49.36l0.53-1.06
			c0.26-0.26,0.26-0.53,0.53-1.06l0.26-0.26L170.31,238.6z M300.19,282.69l-7.66-2.9c-40.65-14.52-77.87-28.25-114.04-41.18
			l-7.13-2.64l1.32-7.66c0.53-2.9,1.06-5.28,1.58-7.92c0.53-2.11,0.79-3.96,1.32-5.81c1.85-9.24,3.43-18.74,5.28-27.98
			c1.58-8.98,3.43-18.21,5.02-27.19c4.22-22.17,15.84-39.86,34.58-52.53c29.3-20.59,68.37-19.53,96.88,3.17
			c31.94,24.81,40.39,70.48,19.8,105.85c-7.92,13.46-15.31,27.19-22.7,40.65c-2.9,5.54-5.81,10.82-8.98,16.37l-0.53,0.79
			c-0.53,0.79-0.79,1.06-1.06,1.58L300.19,282.69z M192.22,223.82c31.68,11.35,64.41,23.23,99.25,36.16
			c2.11-3.96,4.22-7.92,6.6-11.88c7.39-13.73,15.05-27.72,22.97-41.18c16.1-27.45,9.5-62.83-15.05-82.1
			c-22.17-17.42-52.27-18.48-74.97-2.38c-14.78,9.77-23.76,23.49-26.93,40.65c-1.58,8.98-3.43,17.95-5.02,27.19
			c-1.85,9.24-3.43,18.48-5.28,27.72C193.28,219.86,192.75,221.97,192.22,223.82z"/>
	</g>
</g>
</svg>
