<?xml version="1.0" encoding="UTF-8"?>
<svg id="Capa_2" xmlns="http://www.w3.org/2000/svg" version="1.1" xmlns:xlink="http://www.w3.org/1999/xlink" viewBox="0 0 300 300">
  <!-- Generator: Adobe Illustrator 29.6.1, SVG Export Plug-In . SVG Version: 2.1.1 Build 9)  -->
  <defs>
    <style>
      .st0 {
        fill: url(#Degradado_sin_nombre_36);
      }

      .st1 {
        fill: url(#Degradado_sin_nombre_34);
      }

      .st2 {
        fill: url(#Degradado_sin_nombre_32);
      }

      .st3 {
        fill: url(#Degradado_sin_nombre_35);
      }

      .st4 {
        fill: url(#Degradado_sin_nombre_3);
      }

      .st5 {
        fill: url(#Degradado_sin_nombre_10);
      }

      .st6 {
        fill: url(#Degradado_sin_nombre_33);
      }

      .st7 {
        fill: url(#Degradado_sin_nombre_31);
      }
    </style>
    <linearGradient id="Degradado_sin_nombre_3" data-name="Degradado sin nombre 3" x1="53.67" y1="127.03" x2="154.53" y2="127.03" gradientUnits="userSpaceOnUse">
      <stop offset="0" stop-color="#fff"/>
      <stop offset="1" stop-color="#000"/>
    </linearGradient>
    <linearGradient id="Degradado_sin_nombre_31" data-name="Degradado sin nombre 3" x1="68.84" y1="229.92" y2="229.92" xlink:href="#Degradado_sin_nombre_3"/>
    <linearGradient id="Degradado_sin_nombre_32" data-name="Degradado sin nombre 3" x1="179.16" y1="268.79" x2="246.33" y2="268.79" xlink:href="#Degradado_sin_nombre_3"/>
    <linearGradient id="Degradado_sin_nombre_33" data-name="Degradado sin nombre 3" x1="179.16" y1="202.37" x2="246.33" y2="202.37" xlink:href="#Degradado_sin_nombre_3"/>
    <linearGradient id="Degradado_sin_nombre_34" data-name="Degradado sin nombre 3" x1="179.16" y1="133.77" x2="246.33" y2="133.77" xlink:href="#Degradado_sin_nombre_3"/>
    <linearGradient id="Degradado_sin_nombre_35" data-name="Degradado sin nombre 3" x1="179.16" y1="62.68" x2="246.33" y2="62.68" xlink:href="#Degradado_sin_nombre_3"/>
    <linearGradient id="Degradado_sin_nombre_36" data-name="Degradado sin nombre 3" x1="179.16" y1="10.85" x2="246.33" y2="10.85" xlink:href="#Degradado_sin_nombre_3"/>
    <linearGradient id="Degradado_sin_nombre_10" data-name="Degradado sin nombre 10" x1="150" y1="0" x2="150" y2="300" gradientUnits="userSpaceOnUse">
      <stop offset="0" stop-color="#4ea076"/>
      <stop offset="1" stop-color="#5ce0a8"/>
    </linearGradient>
  </defs>
  <g>
    <g>
      <path class="st4" d="M154.53.7c-4.03.06-10.49.71-16.61,4.52-11.64,7.25-12.56,20.01-22.48,40.07-2.72,5.5-7.05,13.44-13.65,22.59-1.23,1.71-1.21,4.02.06,5.69,2.36,3.09,5.03,6.32,8.04,9.62,3.24,3.55,6.46,6.72,9.54,9.52,2.39,2.17,3.78,5.21,3.89,8.42.19,5.64.35,11.32.48,17.06.14,6.25.25,12.45.32,18.59.02,1.98-2.51,2.85-3.73,1.28-1.66-2.14-3.33-4.39-5-6.75-4.68-6.64-8.53-13.05-11.71-18.98-3.58-1.8-7.68-3.63-12.27-5.32-4.44-1.63-8.61-2.86-12.41-3.8-.94-.89-2.32-2.43-3.35-4.69-.83-1.82-1.13-3.47-1.25-4.63-3.32,1.59-8.8,4.75-13.62,10.63-2.79,3.4-4.69,6.9-5.99,10.11-2.45,6.07-.85,13.01,3.99,17.45,17.97,16.52,37.68,37.1,56.99,62.29,15.94,20.8,28.64,40.85,38.75,58.97V.7Z"/>
      <path class="st7" d="M68.84,160.54c15.37,15.64,32,34.49,48.51,56.8,15.06,20.35,27.28,39.89,37.18,57.66v24.3l-40.94-43.9c.4-13.09-2.38-23.08-6-30.65-6.98-14.61-16.28-18.61-26.37-34.51-6.63-10.45-10.28-20.84-12.39-29.69Z"/>
    </g>
    <path class="st2" d="M246.33,300h-67.17v-30.39c0-12.23,2.58-20.62,7.74-25.18,5.16-4.56,13.78-6.84,25.85-6.84s20.69,2.28,25.85,6.84c5.16,4.56,7.74,12.95,7.74,25.18v30.39ZM196.36,269.28v9.01h32.78v-9.01c0-2.97-.34-5.12-1.02-6.46-.68-1.34-2.24-2.01-4.68-2.01h-21.39c-2.44,0-3.99.67-4.68,2.01-.68,1.34-1.02,3.49-1.02,6.46Z"/>
    <path class="st6" d="M246.33,213.82v22.9l-67.17-17.58v-33.54l67.17-17.58v22.9l-10.64,2.5v17.91l10.64,2.5ZM199.79,202.97l18.81,4.45v-9.99l-18.81,4.34v1.19Z"/>
    <path class="st1" d="M179.16,103.65h67.17v21.71h-29.02s0,.43,0,.43c2.65.15,4.37.51,5.16,1.09l23.86,16.61v20.41h-67.17v-21.71h29.02s0-.43,0-.43c-2.65-.14-4.37-.51-5.16-1.09l-23.86-16.61v-20.41Z"/>
    <path class="st3" d="M246.33,52.97l-23.86,16.61c-.79.58-2.51.94-5.16,1.09v.43h29.02v21.71h-67.17v-20.41l23.86-16.61c.79-.58,2.51-.94,5.16-1.09v-.43h-29.02v-21.71h67.17v20.41Z"/>
    <path class="st0" d="M246.33,21.71h-67.17V0h67.17v21.71Z"/>
  </g>
  <g>
    <g>
      <path class="st5" d="M154.53.7c-4.03.06-10.49.71-16.61,4.52-11.64,7.25-12.56,20.01-22.48,40.07-2.72,5.5-7.05,13.44-13.65,22.59-1.23,1.71-1.21,4.02.06,5.69,2.36,3.09,5.03,6.32,8.04,9.62,3.24,3.55,6.46,6.72,9.54,9.52,2.39,2.17,3.78,5.21,3.89,8.42.19,5.64.35,11.32.48,17.06.14,6.25.25,12.45.32,18.59.02,1.98-2.51,2.85-3.73,1.28-1.66-2.14-3.33-4.39-5-6.75-4.68-6.64-8.53-13.05-11.71-18.98-3.58-1.8-7.68-3.63-12.27-5.32-4.44-1.63-8.61-2.86-12.41-3.8-.94-.89-2.32-2.43-3.35-4.69-.83-1.82-1.13-3.47-1.25-4.63-3.32,1.59-8.8,4.75-13.62,10.63-2.79,3.4-4.69,6.9-5.99,10.11-2.45,6.07-.85,13.01,3.99,17.45,17.97,16.52,37.68,37.1,56.99,62.29,15.94,20.8,28.64,40.85,38.75,58.97V.7Z"/>
      <path class="st5" d="M68.84,160.54c15.37,15.64,32,34.49,48.51,56.8,15.06,20.35,27.28,39.89,37.18,57.66v24.3l-40.94-43.9c.4-13.09-2.38-23.08-6-30.65-6.98-14.61-16.28-18.61-26.37-34.51-6.63-10.45-10.28-20.84-12.39-29.69Z"/>
    </g>
    <path class="st5" d="M246.33,300h-67.17v-30.39c0-12.23,2.58-20.62,7.74-25.18,5.16-4.56,13.78-6.84,25.85-6.84s20.69,2.28,25.85,6.84c5.16,4.56,7.74,12.95,7.74,25.18v30.39ZM196.36,269.28v9.01h32.78v-9.01c0-2.97-.34-5.12-1.02-6.46-.68-1.34-2.24-2.01-4.68-2.01h-21.39c-2.44,0-3.99.67-4.68,2.01-.68,1.34-1.02,3.49-1.02,6.46Z"/>
    <path class="st5" d="M246.33,213.82v22.9l-67.17-17.58v-33.54l67.17-17.58v22.9l-10.64,2.5v17.91l10.64,2.5ZM199.79,202.97l18.81,4.45v-9.99l-18.81,4.34v1.19Z"/>
    <path class="st5" d="M179.16,103.65h67.17v21.71h-29.02s0,.43,0,.43c2.65.15,4.37.51,5.16,1.09l23.86,16.61v20.41h-67.17v-21.71h29.02s0-.43,0-.43c-2.65-.14-4.37-.51-5.16-1.09l-23.86-16.61v-20.41Z"/>
    <path class="st5" d="M246.33,52.97l-23.86,16.61c-.79.58-2.51.94-5.16,1.09v.43h29.02v21.71h-67.17v-20.41l23.86-16.61c.79-.58,2.51-.94,5.16-1.09v-.43h-29.02v-21.71h67.17v20.41Z"/>
    <path class="st5" d="M246.33,21.71h-67.17V0h67.17v21.71Z"/>
  </g>
</svg>